<?xml version="1.0" ?><!DOCTYPE svg  PUBLIC '-//W3C//DTD SVG 1.1//EN'  'http://www.w3.org/Graphics/SVG/1.1/DTD/svg11.dtd'><svg enable-background="new 0 0 128 128" id="Слой_1" version="1.1" viewBox="0 0 128 128" xml:space="preserve" xmlns="http://www.w3.org/2000/svg" xmlns:xlink="http://www.w3.org/1999/xlink"><circle cx="64" cy="64" fill="#DCD9A0" r="62"/><g><g><g><path d="M64,126c17.7,0,33.7-7.5,45-19.4V68.2L64.3,44l-15.8,8.4l-3.4,3.8l-7.4,1.9L19,68.2v38.4     C30.3,118.5,46.3,126,64,126z" fill="#B28E6E"/></g><g><polygon fill="#E8E7E7" points="37.7,58.2 81.5,83.1 81.5,93.2 92.6,87.1 92.6,77 48.6,52.4    "/></g><g><path d="M20,69.9l43.9,23.4c0.5,0.3,1.1,0.1,1.4-0.4c0.3-0.5,0.1-1.1-0.4-1.4L19.5,67.3c-0.3-0.2-0.7-0.2-1,0     c-0.3,0.2-0.5,0.5-0.5,0.9v37.4c0.6,0.7,1.3,1.4,2,2.1V69.9z" fill="#252525"/><path d="M109,67.2c-0.6,0-1,0.4-1,1v39.5c0.7-0.7,1.4-1.4,2-2.1V68.2C110,67.6,109.6,67.2,109,67.2z" fill="#252525"/></g><g opacity="0.2"><path d="M109,106.6V68.2L64.3,92.4V126C81.9,125.9,97.8,118.5,109,106.6z" fill="#0C0E0E"/></g><g><polygon fill="#FFFFFF" points="37.7,58.2 37.7,58.2 48.1,52.6    "/></g><g><path d="M20,68.8l18.2-9.7c0.5-0.3,0.7-0.9,0.4-1.4c-0.3-0.5-0.9-0.7-1.4-0.4l-18.7,10c-0.3,0.2-0.5,0.5-0.5,0.9     v37.4c0.6,0.7,1.3,1.4,2,2.1V68.8z" fill="#252525"/><path d="M109.5,67.3L64.8,43.1c-0.3-0.2-0.7-0.2-0.9,0l-15.8,8.4c-0.5,0.3-0.7,0.9-0.4,1.4     c0.3,0.5,0.9,0.7,1.4,0.4l15.3-8.2L108,68.8v38.9c0.7-0.7,1.4-1.4,2-2.1V68.2C110,67.8,109.8,67.5,109.5,67.3z" fill="#252525"/></g><g><path d="M93.1,76.1L49,51.6c-0.3-0.2-0.7-0.2-1,0l-10.8,5.8c-0.3,0.2-0.5,0.5-0.5,0.9s0.2,0.7,0.5,0.9l43.2,24.6     v9.5c0,0.4,0.2,0.7,0.5,0.9c0.2,0.1,0.3,0.1,0.5,0.1c0.2,0,0.3,0,0.5-0.1L93.1,88c0.3-0.2,0.5-0.5,0.5-0.9V77     C93.6,76.6,93.4,76.3,93.1,76.1z M91.6,86.5l-9.2,5v-8.4c0-0.4-0.2-0.7-0.5-0.9l-42.2-24l8.8-4.7l43.1,24V86.5z" fill="#252525"/></g><g><path d="M20,69.9l43.9,23.4c0.3,0.2,0.7,0.2,0.9,0l16.7-9.1c0.5-0.3,0.7-0.9,0.4-1.4c-0.3-0.5-0.9-0.7-1.4-0.4     l-16.2,8.8L19.5,67.3c-0.3-0.2-0.7-0.2-1,0c-0.3,0.2-0.5,0.5-0.5,0.9v37.4c0.6,0.7,1.3,1.4,2,2.1V69.9z" fill="#252525"/><path d="M109.5,67.3c-0.3-0.2-0.7-0.2-1,0l-16.4,8.9c-0.5,0.3-0.7,0.9-0.4,1.4c0.3,0.5,0.9,0.7,1.4,0.4l14.9-8.1     v37.8c0.7-0.7,1.4-1.4,2-2.1V68.2C110,67.8,109.8,67.5,109.5,67.3z" fill="#252525"/></g><g><path d="M47.7,51.8l-10.4,5.6c-0.3,0.2-0.5,0.5-0.5,0.9c0,0.2,0,0.3,0.1,0.5c0.2,0.3,0.5,0.5,0.9,0.5     c0.2,0,0.3,0,0.5-0.1l10.4-5.6c0.3-0.2,0.5-0.5,0.5-0.9c0-0.2,0-0.3-0.1-0.5C48.8,51.7,48.2,51.5,47.7,51.8z" fill="#252525"/></g><g><path d="M64.3,91.4c-0.6,0-1,0.4-1,1V126c0.2,0,0.4,0,0.7,0c0.5,0,0.9,0,1.3,0V92.4     C65.3,91.9,64.9,91.4,64.3,91.4z" fill="#252525"/></g></g></g></svg>