<?xml version="1.0" ?><!DOCTYPE svg  PUBLIC '-//W3C//DTD SVG 1.1//EN'  'http://www.w3.org/Graphics/SVG/1.1/DTD/svg11.dtd'><svg enable-background="new 0 0 128 128" id="Слой_1" version="1.1" viewBox="0 0 128 128" xml:space="preserve" xmlns="http://www.w3.org/2000/svg" xmlns:xlink="http://www.w3.org/1999/xlink"><g><circle cx="64" cy="64" fill="#EEEBA8" r="62"/><g><g><g><path d="M69.4,113l-2.1,1.3l-6.2,4c-2.4,1.5-5.6,0.8-7.1-1.6l-9.8-15.4l-9.7-15.1c-1.5-2.4-0.8-5.6,1.6-7.1      l6.2-4l2.1-1.3c2.4-1.5,3.4-4.5,2.4-7.2L36,39c-1.2-3.2-5-4.7-8.1-3.2l-0.8,0.4l-8.7,4.1c-5.6,2.7-8.9,8.5-8.3,14.6      c1.2,12.3,5.8,34.5,19.5,55.8c1.9,2.9,3.8,5.7,5.9,8.3c8.5,4.4,18.2,7,28.5,7c7.4,0,14.5-1.3,21.1-3.7l-8.2-8.5      C74.9,111.8,71.7,111.5,69.4,113z" fill="#2AA590"/></g><g><g opacity="0.2"><path d="M75.9,113.1l9,9.3c0,0,0.1,0,0.1,0l-8.2-8.5C76.6,113.6,76.3,113.3,75.9,113.1z" fill="#04080A"/></g><g opacity="0.2"><path d="M34.4,86.3c-1.5-2.4-0.8-5.6,1.6-7.1l6.2-4l2.1-1.3c2.4-1.5,3.4-4.5,2.4-7.2L36,39       c-0.9-2.4-3.1-3.8-5.5-3.8l9.6,25c1,2.6,0,5.6-2.4,7.2l-2.1,1.3l-6.2,4c-2.4,1.5-3.1,4.7-1.6,7.1l9.7,15.1l9.8,15.4       c0.9,1.4,2.3,2.2,3.9,2.3l-7.1-11.1L34.4,86.3z" fill="#04080A"/></g></g><g><path d="M72.6,110.8c-1.4,0-2.7,0.4-3.9,1.1l-8.3,5.3c-0.6,0.4-1.4,0.6-2.1,0.6c-1.3,0-2.6-0.7-3.3-1.8      L35.5,85.6c-1.2-1.8-0.6-4.2,1.2-5.4l8.3-5.3c2.9-1.8,4.1-5.5,2.8-8.7L37.2,38.5c-1.1-2.8-3.8-4.6-6.7-4.6      c-1.1,0-2.1,0.2-3.1,0.7l-9.4,4.5c-6,2.9-9.7,9.3-9,15.9c0.9,9.1,4.6,32.8,19.6,56.4c1.4,2.2,2.8,4.2,4.2,6.2      c1.7,1,3.4,1.9,5.2,2.7c-2.5-3.2-5-6.6-7.4-10.3C15.8,86.9,12.2,63.7,11.4,54.7c-0.5-5.6,2.5-11,7.6-13.4l9.4-4.5      c0.6-0.3,1.3-0.5,2-0.5c2,0,3.7,1.2,4.4,3l10.7,27.7c0.8,2.1,0,4.5-1.9,5.7l-8.3,5.3c-1.4,0.9-2.4,2.3-2.8,4      c-0.4,1.7-0.1,3.4,0.9,4.8l19.5,30.5c1.2,1.8,3.2,2.9,5.4,2.9c1.2,0,2.4-0.3,3.4-1L70,114c0.8-0.5,1.6-0.7,2.5-0.7      c1.3,0,2.5,0.5,3.4,1.4l7.8,8c0.9-0.3,1.7-0.6,2.6-0.9l-8.6-8.8C76.4,111.6,74.5,110.8,72.6,110.8z" fill="#2D2E2D"/></g><g opacity="0.15"><path d="M36,39c-1.2-3.2-5-4.7-8.1-3.2l-0.8,0.4l15.1,39.1l2.1-1.3c2.4-1.5,3.4-4.5,2.4-7.2L36,39z" fill="#04080A"/></g><g><path d="M28.3,35.6c-0.2-0.6-1-1-1.6-0.7c-0.6,0.2-1,1-0.7,1.6l15.1,39.1c0.2,0.5,0.7,0.8,1.2,0.8      c0.2,0,0.3,0,0.5-0.1c0.6-0.2,1-1,0.7-1.6L28.3,35.6z" fill="#2D2E2D"/></g><g opacity="0.15"><path d="M69.4,113l-2.1,1.3l9.9,10.3c2.7-0.6,5.3-1.3,7.9-2.3l-8.2-8.5C74.9,111.8,71.7,111.5,69.4,113z" fill="#04080A"/></g><g><path d="M66.4,113.4c-0.5,0.5-0.5,1.3,0,1.8l9.4,9.7c1-0.2,1.9-0.4,2.9-0.6l-10.4-10.8      C67.7,113,66.9,113,66.4,113.4z" fill="#2D2E2D"/></g></g><g><g><g><path d="M87.8,34c-16.3,0.2-29.3,14-29.3,30.4v26.4c0,1.5,1.2,2.6,2.6,2.6h26.4c16.3,0,30.1-12.9,30.4-29.3       C118.2,47.4,104.5,33.7,87.8,34z" fill="#C35D55"/></g></g><g><g><path d="M84.5,72.7H71.6c0.8-2.8,2.8-4.9,6.2-7.1l2.1-1.3c2.8-1.8,5.3-3.5,5.3-7.3c0-4-3-6.4-7.8-6.4       c-3.1,0-5,0.9-6.4,2.3c-1.1,1.1-1.8,2.5-2.1,3.8c0,0.2-0.1,0.3-0.1,0.5c0,0.7,0.5,1.1,1.2,1.3c0.2,0,0.3,0,0.5,0       c0.6,0,1.2-0.3,1.4-1c0.6-2.2,1.7-4.3,5.4-4.3c2.9,0,4.9,1.4,4.9,3.8c0,2.4-1.3,3.6-4.4,5.6L75.5,64c-2.9,1.9-4.8,3.8-5.9,6       c-0.5,0.9-1.2,2.5-1.2,3.6c0,1.3,0.7,1.9,1.9,1.9h14.2c0.8,0,1.2-0.7,1.2-1.4S85.2,72.7,84.5,72.7z" fill="#E7E8E3"/><path d="M84.5,71.4H73.4c0.9-1.6,2.4-3.1,5-4.7l2.1-1.3c2.6-1.6,5.8-3.7,5.8-8.4c0-4.7-3.5-7.7-9-7.7       c-3.1,0-5.5,0.9-7.3,2.6c-1.2,1.2-2,2.7-2.4,4.5c0,0.2-0.1,0.4-0.1,0.7c0,1.2,0.8,2.2,2.2,2.5c0.3,0.1,0.5,0.1,0.7,0.1       c1.3,0,2.3-0.7,2.6-1.9c0.5-2,1.4-3.3,4.2-3.3c0.9,0,3.6,0.2,3.6,2.5c0,1.7-0.7,2.5-3.8,4.5l-2.2,1.4c-3.1,2-5.1,4.1-6.4,6.4       c-0.3,0.6-1.3,2.6-1.3,4.2c0,1.9,1.2,3.1,3.1,3.1h14.2c1.4,0,2.4-1.1,2.4-2.7C86.9,72.5,85.9,71.4,84.5,71.4z M84.4,74.2H70.2       c-0.5,0-0.6-0.1-0.6-0.6c0-0.7,0.5-2.1,1-3c1.1-2,2.8-3.8,5.5-5.5l2.2-1.4c2.9-1.9,4.9-3.5,4.9-6.6c0-3-2.5-5-6.1-5       c-5.2,0-6.3,3.9-6.6,5.2c0,0,0,0-0.2,0c-0.1,0-0.1,0-0.2,0c-0.1,0-0.2-0.1-0.2-0.1c0-0.1,0-0.1,0-0.2c0.3-1.2,0.9-2.4,1.7-3.2       c1.3-1.3,3.1-1.9,5.6-1.9c4.1,0,6.5,1.9,6.5,5.2c0,3.1-1.8,4.5-4.6,6.2l-2.1,1.3c-3.9,2.5-6,4.8-6.8,7.8l-0.4,1.6l14.4,0       c0,0,0,0,0,0.1C84.4,74.1,84.4,74.1,84.4,74.2z M84.5,75.4v-1.2V75.4z" fill="#E7E8E3"/></g><g><path d="M107.9,66.7H105V52.4c0-1.3-0.7-1.8-1.8-1.8c-1.3,0-1.8,0.5-2.6,1.5l-9.5,13c-0.7,0.9-1,1.5-1,2.5       c0,1.1,0.7,1.7,1.7,1.7h10.3v5c0,0.9,0.6,1.3,1.4,1.3s1.4-0.4,1.4-1.3v-5h2.9c0.8,0,1.2-0.6,1.2-1.3       C109.1,67.2,108.8,66.7,107.9,66.7z M102.2,58.7v8h-7.2c-0.5,0-1.3,0-2,0.1c0.5-0.5,0.9-0.9,1.2-1.4l5.8-8.2       c1-1.3,1.7-2.5,2.4-3.7C102.3,55.3,102.2,57.2,102.2,58.7z" fill="#E7E8E3"/><path d="M107.9,65.5h-1.7V52.4c0-1.9-1.2-3-3-3c-2,0-2.8,1-3.6,2l-9.5,13c-0.8,1-1.2,1.9-1.2,3.3       c0,1.7,1.2,2.9,3,2.9h9v3.8c0,1.5,1,2.5,2.7,2.5c1.6,0,2.7-1,2.7-2.5v-3.8h1.7c1.4,0,2.4-1.1,2.4-2.6       C110.4,66.5,109.4,65.5,107.9,65.5z M100.9,58.1c0,0.2,0,0.4,0,0.6v6.8h-5.3L100.9,58.1z M98.3,57.5l-5.1,7.1       c-0.3,0.4-0.6,0.7-1,1.1L98.3,57.5z M107.9,68.1h-4.1v6.3c0,0,0,0,0,0c-0.1,0-0.3,0-0.3,0v-6.3H93l0.1,0       c0.6-0.1,1.3-0.1,1.9-0.1h8.5v-9.3c0-1.5,0.1-3.4,0.2-5l-2.1-0.7l0.1-0.1c0.6-0.9,0.9-1,1.6-1c0.5,0,0.5,0,0.5,0.5V68       L107.9,68.1C107.9,68,107.9,68,107.9,68.1z" fill="#E7E8E3"/></g></g><g><g><path d="M110.3,42c-5.9-6-13.7-9.2-22.1-9.2l-0.5,0C70.9,33,57.3,47.2,57.3,64.4v26.4c0,2.1,1.7,3.9,3.9,3.9       h26.4c17.2,0,31.4-13.7,31.6-30.5C119.3,55.8,116.1,47.9,110.3,42z M87.5,92.2H61.1c-0.8,0-1.4-0.6-1.4-1.4V64.4       c0-15.8,12.6-28.9,28-29.1l0.4,0c7.7,0,14.9,3,20.3,8.5c5.4,5.5,8.3,12.7,8.2,20.4C116.4,79.6,103.4,92.2,87.5,92.2z" fill="#2D2E2D"/></g></g></g></g></g></svg>