<?xml version="1.0" ?><!DOCTYPE svg  PUBLIC '-//W3C//DTD SVG 1.1//EN'  'http://www.w3.org/Graphics/SVG/1.1/DTD/svg11.dtd'><svg enable-background="new 0 0 128 128" id="Слой_1" version="1.1" viewBox="0 0 128 128" xml:space="preserve" xmlns="http://www.w3.org/2000/svg" xmlns:xlink="http://www.w3.org/1999/xlink"><g><circle cx="64" cy="64" fill="#CBE8E1" r="62"/><g><g><g><path d="M90.2,49.3H37.8c-8.3,0-15,6.7-15,15v46c11,9.8,25.4,15.7,41.2,15.7s30.3-5.9,41.2-15.7v-46      C105.2,56,98.5,49.3,90.2,49.3z" fill="#CDAF31"/></g><g><path d="M90.2,48H37.8c-9,0-16.2,7.3-16.2,16.2v44.9c0.8,0.8,1.6,1.5,2.5,2.2V64.3c0-7.6,6.2-13.8,13.8-13.8      h52.4c7.6,0,13.8,6.2,13.8,13.8v47.1c0.9-0.7,1.7-1.5,2.5-2.2V64.3C106.5,55.3,99.2,48,90.2,48z" fill="#2D2E2D"/></g><g><path d="M70.7,42.6c0-3.7-3-6.7-6.7-6.7s-6.7,3-6.7,6.7v6.7H44v6.7c0,3.7,3,6.7,6.7,6.7h26.7      c3.7,0,6.7-3,6.7-6.7v-6.7H70.7V42.6z M64,46.4c-2.1,0-3.8-1.7-3.8-3.8c0-2.1,1.7-3.8,3.8-3.8s3.8,1.7,3.8,3.8      C67.8,44.8,66.1,46.4,64,46.4z" fill="#52544F"/></g><g><g><g><path d="M38.9,98.9c-4.8,0-8.8,3.9-8.8,8.8s3.9,8.8,8.8,8.8s8.8-3.9,8.8-8.8S43.7,98.9,38.9,98.9z M38.9,113.9        c-3.4,0-6.2-2.8-6.2-6.2s2.8-6.2,6.2-6.2s6.2,2.8,6.2,6.2S42.3,113.9,38.9,113.9z" fill="#2D2E2D"/></g><g><path d="M91.9,106.4h-33c-0.7,0-1.2,0.6-1.2,1.2s0.6,1.2,1.2,1.2h33c0.7,0,1.2-0.6,1.2-1.2        S92.6,106.4,91.9,106.4z" fill="#2D2E2D"/></g></g><g><g><circle cx="38.9" cy="80.9" fill="#2AA590" r="7.5"/></g><g><circle cx="38.9" cy="107.6" fill="#2AA590" r="7.5"/></g><g><path d="M38.9,98.9c-4.8,0-8.8,3.9-8.8,8.8s3.9,8.8,8.8,8.8s8.8-3.9,8.8-8.8S43.7,98.9,38.9,98.9z M38.9,113.9        c-3.4,0-6.2-2.8-6.2-6.2s2.8-6.2,6.2-6.2s6.2,2.8,6.2,6.2S42.3,113.9,38.9,113.9z" fill="#2D2E2D"/></g><g><path d="M38.9,72.2c-4.8,0-8.8,3.9-8.8,8.8s3.9,8.8,8.8,8.8s8.8-3.9,8.8-8.8S43.7,72.2,38.9,72.2z M38.9,87.2        c-3.4,0-6.2-2.8-6.2-6.2s2.8-6.2,6.2-6.2s6.2,2.8,6.2,6.2S42.3,87.2,38.9,87.2z" fill="#2D2E2D"/></g><g><path d="M91.9,79.7h-33c-0.7,0-1.2,0.6-1.2,1.2s0.6,1.2,1.2,1.2h33c0.7,0,1.2-0.6,1.2-1.2S92.6,79.7,91.9,79.7        z" fill="#2D2E2D"/></g></g></g><g><path d="M84,48H71.9v-5.4c0-4.4-3.6-7.9-7.9-7.9s-7.9,3.6-7.9,7.9V48H44c-0.7,0-1.2,0.6-1.2,1.2v6.7      c0,4.4,3.6,7.9,7.9,7.9h26.7c4.4,0,7.9-3.6,7.9-7.9v-6.7C85.2,48.6,84.7,48,84,48z M82.8,55.9c0,3-2.4,5.4-5.4,5.4H50.7      c-3,0-5.4-2.4-5.4-5.4v-5.4h12.1c0.7,0,1.2-0.6,1.2-1.2v-6.7c0-3,2.4-5.4,5.4-5.4s5.4,2.4,5.4,5.4v6.7c0,0.7,0.6,1.2,1.2,1.2      h12.1V55.9z" fill="#2D2E2D"/></g><g><path d="M64,37.7c-2.8,0-5,2.2-5,5s2.2,5,5,5s5-2.2,5-5S66.8,37.7,64,37.7z M64,45.2c-1.4,0-2.5-1.1-2.5-2.5      s1.1-2.5,2.5-2.5s2.5,1.1,2.5,2.5S65.4,45.2,64,45.2z" fill="#2D2E2D"/></g></g></g></g></svg>