<?xml version="1.0" ?><!DOCTYPE svg  PUBLIC '-//W3C//DTD SVG 1.1//EN'  'http://www.w3.org/Graphics/SVG/1.1/DTD/svg11.dtd'><svg enable-background="new 0 0 128 128" id="Слой_1" version="1.1" viewBox="0 0 128 128" xml:space="preserve" xmlns="http://www.w3.org/2000/svg" xmlns:xlink="http://www.w3.org/1999/xlink"><g><circle cx="64" cy="64" fill="#DCD9A0" r="62"/><g><g><polygon fill="#EF7063" points="72.3,3.1 55.7,3.1 57.8,14.5 48.5,75.1 64,91 79.5,75.1 70.1,14.5    "/></g><g opacity="0.1"><polygon fill="#08090A" points="57.8,14.5 70.1,14.5 72.3,3.1 55.7,3.1    "/></g><g><path d="M56.8,14.5L47.5,75c0,0.3,0.1,0.6,0.3,0.9l15.5,15.9c0.2,0.2,0.4,0.3,0.7,0.3s0.5-0.1,0.7-0.3l15.5-15.9     c0.2-0.2,0.3-0.5,0.3-0.9l-9.3-60.5l2.1-11.2c0-0.2,0,0.5-0.1,0.3c-1.7-0.2-3.4-0.4-5.1-0.5H60c-1.7,0.1-3.4,0.3-5.1,0.5     c-0.1,0.2-0.2-0.6-0.1-0.3L56.8,14.5z M71.1,4.1l-1.9,10.2c0,0.1,0,0.2,0,0.3l9.3,60.1L64,89.6L49.6,74.8l9.3-60.1     c0-0.1,0-0.2,0-0.3L56.9,4.1H71.1z" fill="#252525"/></g><g><path d="M56.9,14.7c0.1,0.5,0.5,0.8,1,0.8h12.3c0.5,0,0.9-0.3,1-0.8l2.1-11.3c0-0.2,0,0.5-0.1,0.3     c-1.7-0.2-3.4-0.4-5.1-0.5H60c-1.7,0.1-3.4,0.3-5.1,0.5c-0.1,0.2-0.2-0.6-0.1-0.3L56.9,14.7z M71.1,4.1l-1.8,9.3H58.7l-1.8-9.3     H71.1z" fill="#252525"/></g><g><path d="M72.5,19.2l9.9-14.4C77.2,3.2,71.6,2.2,65.9,2L64,3.1L72.5,19.2z" fill="#E8E7E7"/></g><g><path d="M63.1,3.6l8.5,16c0.2,0.3,0.5,0.5,0.8,0.5c0,0,0,0,0.1,0c0.3,0,0.6-0.2,0.8-0.4L83.5,5.1     c-0.7-0.2-1.3-0.4-2-0.6l-8.8,12.7L65.3,3.5l2.4-1.4C66.5,2,65.3,2,64,2c0,0,0,0,0,0l-0.5,0.3C63,2.6,62.9,3.1,63.1,3.6z" fill="#252525"/></g><g><path d="M64,3.1L62.1,2c-5.8,0.2-11.3,1.1-16.6,2.8l9.9,14.4L64,3.1z" fill="#E8E7E7"/></g><g><path d="M55.5,20.2C55.5,20.2,55.5,20.2,55.5,20.2c0.4,0,0.7-0.2,0.9-0.5l8.5-16c0.3-0.5,0.1-1.1-0.4-1.3L64,2     c0,0,0,0,0,0c-1.3,0-2.5,0-3.7,0.1l2.4,1.4l-7.3,13.7L46.5,4.5c-0.7,0.2-1.3,0.4-2,0.6l10.1,14.6C54.8,20,55.2,20.2,55.5,20.2z" fill="#252525"/></g></g></g></svg>