<?xml version="1.0" ?><!DOCTYPE svg  PUBLIC '-//W3C//DTD SVG 1.1//EN'  'http://www.w3.org/Graphics/SVG/1.1/DTD/svg11.dtd'><svg enable-background="new 0 0 128 128" id="Слой_1" version="1.1" viewBox="0 0 128 128" xml:space="preserve" xmlns="http://www.w3.org/2000/svg" xmlns:xlink="http://www.w3.org/1999/xlink"><g><circle cx="64" cy="64" fill="#C1E1CA" r="62"/><g><g><path d="M64,126c31.8,0,58-24,61.6-54.8c-0.4-0.3-0.8-0.6-1.3-0.9l-46.1-25c-2.4-1.3-5.2-1.3-7.6,0l-14.9,7.9     c-0.3,0.2-0.5,0.3-0.8,0.6L50.9,58c-0.4,0.4-1,0.7-1.6,0.9l-6.7,1.5c-0.3,0.1-0.5,0.2-0.8,0.3l-18,9.6c-2.6,1.4-4.2,4.1-4.2,7.1     v29.8C30.8,118.8,46.5,126,64,126z" fill="#9E715F"/></g><g><path d="M20.8,108.4V77.4c0-2.5,1.4-4.8,3.6-6l18-9.6c0.2-0.1,0.3-0.1,0.5-0.2l6.7-1.5c0.8-0.2,1.6-0.6,2.2-1.2     l4.1-4.2c0.1-0.1,0.3-0.3,0.5-0.4l14.9-7.9c1-0.5,2.1-0.8,3.2-0.8c1.1,0,2.2,0.3,3.2,0.8l46.1,25c0.6,0.3,1.2,0.8,1.7,1.3     c0.1-1,0.3-2,0.3-3c-0.3-0.2-0.5-0.4-0.8-0.5l-46.1-25c-2.7-1.5-6.1-1.5-8.8,0l-14.9,7.9c-0.4,0.2-0.8,0.5-1.1,0.8L50,57.1     c-0.3,0.3-0.6,0.5-1,0.5l-6.7,1.5c-0.4,0.1-0.8,0.2-1.1,0.4l-18,9.6c-3,1.6-4.9,4.7-4.9,8.2v28.5     C19.1,106.7,19.9,107.6,20.8,108.4z" fill="#2D2E2D"/></g><g><path d="M77.6,98.7c-2,1.1-4.4,1.1-6.4,0L22.4,72.7c-0.6-0.3-1.4-0.1-1.7,0.5c-0.3,0.6-0.1,1.4,0.5,1.7L70,100.9     c1.4,0.7,2.9,1.1,4.4,1.1c1.5,0,3-0.4,4.4-1.1l46-24.9c0.2-1,0.4-2.1,0.5-3.1L77.6,98.7z" fill="#2D2E2D"/></g><g><path d="M104.5,80.9L55.3,53.5l-13.1,7l48.9,27.9c2.5,1.4,4,4.1,4,7v4.8c0,1.2,1.3,2,2.4,1.4l9.5-5.2     c1-0.6,1.7-1.6,1.7-2.8v-5.6C108.7,85,107.1,82.3,104.5,80.9z" fill="#E7E8E3"/></g><g opacity="0.1"><path d="M64,126c30.7,0,56.2-22.3,61.1-51.6L78.2,99.8c-2.4,1.3-5.2,1.3-7.6,0l-48-25.6c-1.4-0.8-3.2,0.3-3.2,1.9     v31C30.8,118.8,46.5,126,64,126z" fill="#060B0D"/></g><g opacity="0.1"><path d="M125.1,74.4l-50.7,27.5v23.2C100.3,120.7,120.7,100.3,125.1,74.4z" fill="#060B0D"/></g><g><path d="M74.4,100.6c-0.7,0-1.2,0.6-1.2,1.2v23.5c0.8-0.1,1.7-0.3,2.5-0.4v-23C75.7,101.2,75.1,100.6,74.4,100.6z     " fill="#2D2E2D"/></g><g><polygon fill="#FFFFFF" points="42.2,60.5 42.2,60.5 54.8,53.7    "/></g><g><path d="M105.2,79.8L55.9,52.4c-0.4-0.2-0.8-0.2-1.2,0l-13.1,7c-0.4,0.2-0.7,0.6-0.7,1.1c0,0.5,0.2,0.9,0.6,1.1     l48.9,27.9c2.1,1.2,3.4,3.5,3.4,5.9v4.8c0,1.6,1.3,2.9,2.9,2.9c0,0,0,0,0,0c0.5,0,0.9-0.1,1.4-0.4l9.5-5.2     c1.4-0.8,2.3-2.3,2.3-3.9v-5.6C109.9,84.6,108.1,81.5,105.2,79.8z M107.4,93.5c0,0.7-0.4,1.4-1,1.7l-9.5,5.2c-0.1,0-0.1,0-0.2,0     c-0.1,0-0.4-0.1-0.4-0.4v-4.8c0-3.3-1.8-6.4-4.7-8l-47-26.7l10.5-5.6L103.9,82c2.1,1.2,3.5,3.5,3.5,5.9V93.5z" fill="#2D2E2D"/></g></g></g></svg>