<?xml version="1.0" ?><!DOCTYPE svg  PUBLIC '-//W3C//DTD SVG 1.1//EN'  'http://www.w3.org/Graphics/SVG/1.1/DTD/svg11.dtd'><svg enable-background="new 0 0 128 128" id="Слой_1" version="1.1" viewBox="0 0 128 128" xml:space="preserve" xmlns="http://www.w3.org/2000/svg" xmlns:xlink="http://www.w3.org/1999/xlink"><circle cx="64" cy="64" fill="#F6F3E0" r="62"/><g><path d="M81.5,31H46.4c-8.3,0-15,6.7-15,15v70.7C40.9,122.6,52,126,64,126c11.9,0,23-3.4,32.5-9.2V46   C96.5,37.7,89.7,31,81.5,31z" fill="#008E9D"/><path d="M81.5,29.8H46.4c-9,0-16.2,7.3-16.2,16.2v69.9c0.8,0.5,1.7,1.1,2.5,1.5V46c0-7.6,6.2-13.8,13.8-13.8h35.1   c7.6,0,13.8,6.2,13.8,13.8v71.6c0.8-0.5,1.7-1,2.5-1.5V46C97.7,37,90.4,29.8,81.5,29.8z" fill="#2D2E2D"/><path d="M88.5,49.8H39.4c-1.6,0-2.9,1.3-2.9,2.9v66.8c8.3,4.1,17.6,6.5,27.5,6.5c9.8,0,19.1-2.3,27.4-6.4V52.7   C91.4,51.1,90.1,49.8,88.5,49.8z" fill="#EEEBA8"/><g><path d="M82.9,97.7H45c-0.6,0-1.1,0.5-1.1,1.1v3.2c0,0.6,0.5,1.1,1.1,1.1l1.6,0.1l2.3,17c0.2,1.3,1.3,2.3,2.6,2.3    h24.8c1.3,0,2.4-1,2.6-2.3l2.3-17l1.6-0.1c0.6,0,1.1-0.5,1.1-1.1v-3.2C83.9,98.2,83.5,97.7,82.9,97.7z" fill="#C35D55"/></g><g><g><path d="     M46.6,103l2.3,17.1c0.2,1.3,1.3,2.3,2.6,2.3h24.8c1.3,0,2.4-1,2.6-2.3l2.3-17.1 M56,117.4v-10 M63.9,117.4v-10 M71.8,117.4v-10" fill="none" stroke="#2D2E2D" stroke-linecap="round" stroke-linejoin="round" stroke-miterlimit="10" stroke-width="2.5"/></g><g><path d="M82.8,96.5H45.1c-1.3,0-2.4,1.1-2.4,2.4v3c0,1.3,1.1,2.4,2.4,2.4h37.7c1.3,0,2.4-1.1,2.4-2.4v-3     C85.2,97.6,84.1,96.5,82.8,96.5z M82.7,101.7H45.2V99h37.5V101.7z" fill="#2D2E2D"/></g><g><path d="M60.5,86.8c-0.6-0.3-1.4-0.1-1.7,0.6l-6,11.9c-0.3,0.6-0.1,1.4,0.6,1.7c0.2,0.1,0.4,0.1,0.6,0.1     c0.5,0,0.9-0.3,1.1-0.7l6-11.9C61.3,87.9,61.1,87.1,60.5,86.8z" fill="#2D2E2D"/></g><g><path d="M69,87.4c-0.3-0.6-1.1-0.9-1.7-0.6c-0.6,0.3-0.9,1.1-0.6,1.7l6,11.9c0.2,0.4,0.7,0.7,1.1,0.7     c0.2,0,0.4,0,0.6-0.1c0.6-0.3,0.9-1.1,0.6-1.7L69,87.4z" fill="#2D2E2D"/></g></g><g><g><path d="M90.2,120.2L90.2,120.2c0.8-0.4,1.7-0.8,2.5-1.2C91.8,119.4,91,119.8,90.2,120.2z" fill="#2D2E2D"/><path d="M35.2,118.9c0.8,0.4,1.7,0.8,2.5,1.2C36.9,119.8,36,119.3,35.2,118.9z" fill="#2D2E2D"/></g><path d="M37.7,52.7c0-0.7-0.6-1.2-1.2-1.2s-1.2,0.6-1.2,1.2v66.2c0.8,0.4,1.7,0.8,2.5,1.2V52.7z" fill="#2D2E2D"/><path d="M91.4,51.4c-0.7,0-1.2,0.6-1.2,1.2v67.5c0.8-0.4,1.7-0.8,2.5-1.2V52.7C92.7,52,92.1,51.4,91.4,51.4z" fill="#2D2E2D"/></g><g><g><path d="M58.9,50.5l-2.6,22.5c0,4.3,3.5,7.8,7.8,7.8s7.8-3.5,7.8-7.8l-2.6-22.5H58.9z" fill="#C35D55"/></g><g><path d="M40.7,73.1c0,4.3,3.5,7.8,7.8,7.8s7.8-3.5,7.8-7.8l2.6-22.5H48.5L40.7,73.1z" fill="#FFFFFF"/><path d="M58.9,49.3H48.5c-0.5,0-1,0.3-1.2,0.8l-7.8,22.5c0,0.1-0.1,0.3-0.1,0.4c0,5,4.1,9.1,9.1,9.1     c5,0,9-4,9.1-9l2.6-22.5c0-0.4-0.1-0.7-0.3-1C59.6,49.4,59.3,49.3,58.9,49.3z M55.1,72.9c0,0,0,0.1,0,0.1c0,3.6-2.9,6.6-6.6,6.6     c-3.5,0-6.4-2.8-6.6-6.4l7.4-21.5h8.1L55.1,72.9z" fill="#E7E8E3"/></g><g><path d="M25.1,73.1c0,4.3,3.5,7.8,7.8,7.8s7.8-3.5,7.8-7.8l7.8-22.5H38.1L25.1,73.1z" fill="#C35D55"/></g><g><path d="M69.4,50.5L72,73.1c0,4.3,3.5,7.8,7.8,7.8s7.8-3.5,7.8-7.8l-7.8-22.5H69.4z" fill="#FFFFFF"/><path d="M81,50.1c-0.2-0.5-0.6-0.8-1.2-0.8H69.4c-0.4,0-0.7,0.2-0.9,0.4c-0.2,0.3-0.3,0.6-0.3,1l2.6,22.5     c0,5,4.1,9,9.1,9c5,0,9.1-4.1,9.1-9.1c0-0.1,0-0.3-0.1-0.4L81,50.1z M79.8,79.6c-3.6,0-6.6-2.9-6.6-6.6c0,0,0-0.1,0-0.1     l-2.4-21.2h8.1l7.4,21.5C86.2,76.8,83.3,79.6,79.8,79.6z" fill="#E7E8E3"/></g><g><path d="M79.8,50.5l7.8,22.5c0,4.3,3.5,7.8,7.8,7.8s7.8-3.5,7.8-7.8L90.2,50.5H79.8z" fill="#C35D55"/></g><g><path d="M70.6,50.4c-0.1-0.6-0.6-1.1-1.2-1.1H58.9c-0.6,0-1.2,0.5-1.2,1.1l-2.6,22.5c0,0,0,0.1,0,0.1     c0,5,4.1,9.1,9.1,9.1s9.1-4.1,9.1-9.1c0,0,0-0.1,0-0.1L70.6,50.4z M64.2,79.6c-3.6,0-6.5-2.9-6.6-6.5L60,51.8h8.2l2.5,21.4     C70.7,76.7,67.7,79.6,64.2,79.6z" fill="#2D2E2D"/></g><g><path d="M58.9,49.3H48.5c-0.5,0-1,0.3-1.2,0.8l-7.8,22.5c0,0.1-0.1,0.3-0.1,0.4c0,5,4.1,9.1,9.1,9.1     c5,0,9-4,9.1-9l2.6-22.5c0-0.4-0.1-0.7-0.3-1C59.6,49.4,59.3,49.3,58.9,49.3z M55.1,72.9c0,0,0,0.1,0,0.1c0,3.6-2.9,6.6-6.6,6.6     c-3.5,0-6.4-2.8-6.6-6.4l7.4-21.5h8.1L55.1,72.9z" fill="#2D2E2D"/></g><g><path d="M48.5,49.3h-9.1c-1.2,0-2.4,0.5-3.2,1.5c-0.1,0.1-0.1,0.1-0.1,0.2L24,72.5c-0.1,0.2-0.2,0.4-0.2,0.6     c0,5,4.1,9.1,9.1,9.1c4.9,0,8.9-3.9,9.1-8.8l7.7-22.4c0.1-0.4,0.1-0.8-0.2-1.1C49.3,49.5,48.9,49.3,48.5,49.3z M39.5,72.7     c0,0.1-0.1,0.3-0.1,0.4c0,3.6-2.9,6.6-6.6,6.6c-3.5,0-6.4-2.8-6.5-6.2l11.8-21.1c0.3-0.3,0.7-0.5,1.2-0.5h7.3L39.5,72.7z" fill="#2D2E2D"/></g><g><path d="M81,50.1c-0.2-0.5-0.6-0.8-1.2-0.8H69.4c-0.4,0-0.7,0.2-0.9,0.4c-0.2,0.3-0.3,0.6-0.3,1l2.6,22.5     c0,5,4.1,9,9.1,9c5,0,9.1-4.1,9.1-9.1c0-0.1,0-0.3-0.1-0.4L81,50.1z M79.8,79.6c-3.6,0-6.6-2.9-6.6-6.6c0,0,0-0.1,0-0.1     l-2.4-21.2h8.1l7.4,21.5C86.2,76.8,83.3,79.6,79.8,79.6z" fill="#2D2E2D"/></g><g><path d="M92.2,50.9c0-0.1-0.1-0.1-0.1-0.2c-0.8-0.9-1.9-1.5-3.2-1.5h-9.1c-0.4,0-0.8,0.2-1,0.5     c-0.2,0.3-0.3,0.8-0.2,1.1l7.7,22.4c0.1,4.9,4.1,8.8,9.1,8.8c5,0,9.1-4.1,9.1-9.1c0-0.2-0.1-0.4-0.2-0.6L92.2,50.9z M95.4,79.6     c-3.6,0-6.6-2.9-6.6-6.6c0-0.1,0-0.3-0.1-0.4l-7.2-20.9h7.3c0.4,0,0.9,0.2,1.2,0.5l11.8,21.1C101.8,76.9,98.9,79.6,95.4,79.6z" fill="#2D2E2D"/></g><g opacity="0.1"><polygon fill="#04080A" points="37.9,50.5 95.4,58.3 90.2,50.5    "/></g><g opacity="0.1"><path d="M64.2,80.9c4.3,0,7.8-3.5,7.8-7.8H56.3C56.3,77.4,59.8,80.9,64.2,80.9z" fill="#04080A"/></g><g opacity="0.1"><path d="M48.5,80.9c4.3,0,7.8-3.5,7.8-7.8H40.7C40.7,77.4,44.2,80.9,48.5,80.9z" fill="#04080A"/></g><g opacity="0.1"><path d="M32.9,80.9c4.3,0,7.8-3.5,7.8-7.8H25.1C25.1,77.4,28.6,80.9,32.9,80.9z" fill="#04080A"/></g><g opacity="0.1"><path d="M79.8,80.9c4.3,0,7.8-3.5,7.8-7.8H72C72,77.4,75.5,80.9,79.8,80.9z" fill="#04080A"/></g><g opacity="0.1"><path d="M95.4,80.9c4.3,0,7.8-3.5,7.8-7.8H87.6C87.6,77.4,91.1,80.9,95.4,80.9z" fill="#04080A"/></g></g><g><path d="    M66.6,126.9" fill="none" stroke="#373B39" stroke-linecap="round" stroke-linejoin="round" stroke-miterlimit="10" stroke-width="2.5"/></g><g><circle cx="55.5" cy="40.4" fill="#2D2E2D" r="1.5"/></g><g><path d="M73.1,39.2H60.6c-0.7,0-1.2,0.6-1.2,1.2s0.6,1.2,1.2,1.2h12.6c0.7,0,1.2-0.6,1.2-1.2S73.8,39.2,73.1,39.2z    " fill="#2D2E2D"/></g><g><path d="    M66.6,108.4" fill="none" stroke="#373B39" stroke-linecap="round" stroke-linejoin="round" stroke-miterlimit="10" stroke-width="2.5"/></g></g></svg>