<?xml version="1.0" standalone="no"?>
<!DOCTYPE svg PUBLIC "-//W3C//DTD SVG 1.1//EN" "http://www.w3.org/Graphics/SVG/1.1/DTD/svg11.dtd" >
<svg xmlns="http://www.w3.org/2000/svg">
<metadata>Generated by IcoMoon</metadata>
<defs>
<font id="icomoon" horiz-adv-x="512">
<font-face units-per-em="512" ascent="480" descent="-32" />
<missing-glyph horiz-adv-x="512" />
<glyph unicode="&#x20;" d="" horiz-adv-x="256" />
<glyph unicode="&#xe800;" d="M281.6 249.6q15.36 0 15.36-25.6t-15.36-25.6h-107.52v-107.52q0-15.36-25.6-15.36t-25.6 15.36v107.52h-107.52q-15.36 0-15.36 25.6t15.36 25.6h107.52v107.52q0 15.36 25.6 15.36t25.6-15.36v-107.52h107.52z" horiz-adv-x="297" />
<glyph unicode="&#xe801;" d="M438.784 224q0-44.544-17.408-84.992t-46.592-70.144-70.144-47.104-84.992-17.408-85.504 17.408-69.632 47.104-47.104 70.144-17.408 84.992q0 52.224 23.040 97.792t64.512 77.312q12.288 9.216 27.648 7.168t23.552-14.336q9.216-11.776 7.168-27.136t-14.336-24.064q-27.648-20.992-43.008-51.712t-15.36-65.024q0-29.696 11.264-56.832t31.744-46.592 46.592-31.232 56.832-11.776 56.32 11.776 47.104 31.232 31.232 46.592 11.264 56.832q0 34.816-15.36 65.024t-43.008 51.712q-12.288 9.216-14.336 24.064t7.168 27.136q8.704 12.288 24.064 14.336t27.136-7.168q41.472-31.232 64.512-77.312t23.040-97.792zM256 443.648v-183.296q0-14.848-10.752-25.6t-25.6-10.752-26.112 10.752-10.752 25.6v183.296q0 14.848 10.752 25.6t26.112 10.752 25.6-10.752 10.752-25.6z" horiz-adv-x="439" />
<glyph unicode="&#xe802;" d="M376.832 110.336q104.448-36.864 104.448-62.464v-54.272h-481.28v54.272q0 25.6 104.448 62.464 48.128 17.408 65.536 35.328t17.408 48.64q0 11.264-11.264 25.088t-16.384 37.376q-1.024 6.144-4.608 9.216t-7.168 4.096-7.168 8.704-4.608 22.016q0 8.192 2.56 13.312t4.608 6.144l2.048 2.048q-4.096 25.6-6.144 45.056-2.048 27.648 20.992 57.344t80.384 29.696 80.896-29.696 20.48-57.344l-6.144-45.056q9.216-4.096 9.216-21.504-1.024-14.336-4.608-22.016t-7.168-8.704-7.168-4.096-4.608-9.216q-4.096-24.576-15.872-37.888t-11.776-24.576q0-30.72 17.92-48.64t65.024-35.328z" horiz-adv-x="482" />
<glyph unicode="&#xe803;" d="M512 277.248v-226.816q0-18.944-13.312-32.256t-32.256-13.824h-420.864q-18.432 0-32.256 13.824t-13.312 32.256v226.816q12.8-14.336 28.672-25.088 103.424-70.144 142.336-98.304 16.384-12.288 26.112-18.944t27.136-13.824 31.232-6.656h1.024q14.336 0 31.232 6.656t27.136 13.824 26.112 18.944q48.64 34.816 142.336 98.304 16.384 11.264 28.672 25.088zM512 361.216q0-22.528-13.824-43.008t-34.816-35.328q-107.52-74.752-134.144-92.672-2.56-2.048-11.776-8.704t-15.36-11.264-14.848-9.216-16.896-7.68-13.824-2.56h-1.024q-6.144 0-13.824 2.56t-16.896 7.68-14.848 9.216-15.36 11.264-11.776 8.704q-26.112 17.92-75.264 51.712t-58.368 40.96q-17.92 11.776-33.28 32.768t-15.872 39.424q0 22.016 11.776 36.864t33.792 14.848h420.864q18.432 0 31.744-13.312t13.824-32.256z" />
<glyph unicode="&#xe804;" d="M477.184 318.208q0-11.264-7.68-19.456l-245.76-245.76q-8.192-7.68-19.456-7.68t-19.456 7.68l-142.336 142.336q-7.68 8.192-7.68 19.456t7.68 19.456l38.912 38.912q8.192 8.192 19.456 8.192t19.456-8.192l83.968-84.48 187.392 187.904q8.192 8.192 19.456 8.192t19.456-8.192l38.912-38.912q7.68-8.192 7.68-19.456z" />
<glyph unicode="&#xe805;" d="M402.432 125.696q0-7.68-3.072-19.968t-6.144-19.456q-5.632-14.336-34.816-30.72-26.624-14.336-52.736-14.336-8.192 0-15.36 1.024t-16.384 3.584-13.312 4.096-15.872 5.632-14.336 5.12q-27.648 10.24-49.664 24.064-36.864 22.528-75.776 61.44t-61.44 75.776q-13.824 22.016-23.552 49.664-1.024 2.56-5.12 14.336t-6.144 15.872-4.096 13.312-3.584 16.384-1.024 14.848q0 26.624 14.848 53.248 15.872 28.672 30.208 34.816 7.168 3.072 19.456 6.144t19.968 3.072q4.096 0 6.144-1.024 5.12-1.536 15.36-22.016 3.072-5.12 8.192-15.36t10.24-17.92 8.704-15.36q1.024-1.024 5.12-7.168t6.144-10.24 2.048-8.192q0-5.632-8.192-14.336t-17.92-15.36-17.408-15.36-8.192-12.8q0-2.56 1.536-6.656t2.048-5.632 4.096-7.168 3.584-5.12q21.504-39.424 49.664-67.584t67.072-49.664q0.512 0 5.12-3.072t7.168-4.096 5.632-2.56 6.656-1.024q5.12 0 12.8 7.68t15.36 17.92 15.872 17.92 14.336 8.192q3.584 0 7.68-2.048t10.24-6.144 7.168-5.12q7.168-4.096 15.36-8.704t17.92-10.24 15.872-8.704q19.968-9.728 21.504-14.848 1.024-2.048 1.024-6.144z" horiz-adv-x="402" />
<glyph unicode="&#xe806;" d="M292.352 224q0 30.208-20.992 51.712t-51.712 21.504-51.712-21.504-21.504-51.712 21.504-51.712 51.712-21.504 51.712 21.504 20.992 51.712zM438.784 255.232v-63.488q0-3.584-2.048-6.656t-5.632-3.584l-53.248-8.192q-5.12-15.36-10.752-26.112 9.728-13.824 30.208-39.424 3.072-3.072 3.072-6.656t-2.56-6.656q-7.68-10.752-28.16-31.232t-27.136-19.968q-3.584 0-7.168 2.56l-39.424 30.72q-12.8-6.656-26.112-10.752-4.608-38.912-8.192-53.248-2.048-8.192-10.24-8.192h-63.488q-4.096 0-7.168 2.56t-3.072 6.144l-8.192 52.736q-13.824 4.608-25.6 10.752l-40.448-30.72q-3.072-2.56-7.168-2.56t-7.168 3.072q-35.84 32.768-47.104 48.128-2.048 2.56-2.048 6.656 0 3.072 2.56 6.144 4.096 6.144 14.336 18.944t15.36 20.48q-7.68 14.336-11.776 28.16l-52.224 7.68q-3.584 0.512-5.632 3.584t-2.56 6.656v63.488q0 3.584 2.56 6.656t5.12 3.584l53.248 8.192q4.096 12.8 11.264 26.112-11.776 16.384-30.72 39.424-3.072 3.584-3.072 7.168 0 2.56 2.56 6.144 7.68 10.24 28.16 30.72t27.136 20.48q3.584 0 7.68-2.56l39.424-30.72q12.288 6.656 25.6 10.752 4.608 38.912 8.704 53.248 1.536 7.68 10.24 7.68h63.488q3.584 0 6.656-2.048t3.584-6.144l7.68-52.736q14.336-4.608 25.6-10.752l40.96 30.72q2.56 2.56 6.656 2.56 3.584 0 7.168-2.56 36.864-34.304 47.104-48.64 2.048-2.56 2.048-6.656 0-3.072-2.048-6.144-4.608-6.144-14.848-19.456t-15.36-19.968q7.168-14.336 11.776-28.16l52.224-7.68q3.584-0.512 6.144-3.584t2.048-6.656z" horiz-adv-x="439" />
<glyph unicode="&#xe807;" d="M462.848 363.264q-18.944-27.648-46.080-47.616 0-4.096 0-11.776 0-37.376-10.752-74.24t-32.768-71.168-52.736-59.904-73.728-41.984-92.672-15.36q-77.312 0-141.312 41.472 9.728-1.536 22.016-1.536 64.512 0 114.688 39.424-30.208 1.024-53.76 18.432t-32.768 45.568q9.728-1.024 17.408-1.024 12.288 0 24.576 3.072-32.256 6.656-53.248 31.744t-20.992 58.88v1.024q19.456-10.752 41.984-11.776-18.944 12.8-30.208 32.768t-11.264 44.032q0 25.088 12.8 46.592 34.816-42.496 83.968-68.096t106.496-28.16q-2.56 10.752-2.56 20.992 0 38.4 27.136 65.024t65.024 27.136q40.448 0 67.584-29.184 31.232 6.144 58.368 22.528-10.24-32.768-40.448-51.2 26.624 3.072 53.248 14.336z" horiz-adv-x="475" />
<glyph unicode="&#xe808;" d="M256 374.528h-72.704q-7.168 0-12.8-7.68t-5.632-18.944v-52.224h91.136v-75.776h-91.136v-226.304h-87.040v226.304h-77.824v75.776h77.824v44.032q0 48.128 30.208 81.408t75.264 33.28h72.704v-79.872z" horiz-adv-x="256" />
<glyph unicode="&#xe809;" d="M447.488 360.192q7.168 3.072 11.264-0.512t0-9.728q-49.152-70.656-83.968-109.056t-56.32-46.080-37.376-1.024-30.72 18.944-32.256 20.48-47.616-2.048-71.168-44.032l46.080-180.224h-51.2l-94.208 368.64 47.104 17.408q46.080 33.792 77.824 44.032t50.176 1.536 32.768-26.112 31.744-36.352 40.448-31.744 66.048-10.24 101.376 26.112z" horiz-adv-x="461" />
<glyph unicode="&#xe80a;" d="M24.576 337.664q0 29.696 12.8 52.224t28.672 33.28 35.328 17.408 28.672 7.68 13.312 1.024h117.76v-2.048q0-11.264-39.936-18.432-14.336 0-19.456-3.072 20.48-10.24 27.648-28.672t7.168-49.152q0-52.224-34.816-80.896-19.456-19.456-19.456-27.648 0-9.216 25.6-32.768 53.248-46.080 53.248-91.136 0-71.68-59.392-99.328-34.816-17.408-76.8-17.408h-2.048l-2.048 1.024q-1.024-1.024-2.048-1.024-12.288 0-27.648 2.56t-38.4 10.752-37.888 29.184-14.848 52.736q0 30.72 16.384 51.712t42.496 29.184 45.056 11.264 36.352 3.072h1.024q-8.192 11.264-12.288 24.064t-4.096 19.968l1.024 7.168h-7.168q-32.768 0-56.32 15.36-37.888 22.528-37.888 81.92zM214.016 106.24q-2.048 26.624-22.016 43.008t-52.736 16.384h-8.192q-32.768-1.024-58.368-23.552-23.552-21.504-21.504-48.128t27.136-40.96 60.928-12.288q34.816 2.048 55.808 20.48t18.944 45.056zM183.296 362.24q-15.36 55.296-62.464 55.296-6.144 0-10.24-1.024-20.48-6.144-29.696-31.744-8.192-25.6-1.024-54.272 7.168-26.624 24.064-43.52t36.352-16.896q6.144 0 9.216 1.024 21.504 6.144 32.256 33.28t1.536 57.856zM381.952 273.152h76.8v-48.128h-76.8v-76.8h-48.128v76.8h-76.8v48.128h76.8v76.8h48.128v-76.8z" horiz-adv-x="459" />
<glyph unicode="&#xe80b;" d="M438.784 96v-36.352q0-7.68-5.12-12.8t-13.312-5.632h-401.92q-7.68 0-12.8 5.632t-5.632 12.8v36.352q0 7.68 5.632 12.8t12.8 5.632h401.92q7.68 0 13.312-5.632t5.12-12.8zM438.784 242.432v-36.864q0-7.168-5.12-12.8t-13.312-5.12h-401.92q-7.68 0-12.8 5.12t-5.632 12.8v36.864q0 7.168 5.632 12.8t12.8 5.12h401.92q7.68 0 13.312-5.12t5.12-12.8zM438.784 388.352v-36.352q0-7.68-5.12-12.8t-13.312-5.632h-401.92q-7.68 0-12.8 5.632t-5.632 12.8v36.352q0 7.68 5.632 13.312t12.8 5.12h401.92q7.68 0 13.312-5.12t5.12-13.312z" horiz-adv-x="439" />
<glyph unicode="&#xe80c;" d="M413.184 423.168v-160.256h-32.768v17.92q-18.944-19.968-37.888-19.968-23.040 0-23.040 28.672v133.632h32.768v-122.88q0-10.752 8.704-10.752t19.456 12.288v121.344h32.768zM291.84 385.792v-82.944q0-21.504-12.8-32.768t-34.816-11.264q-20.992 0-33.792 12.288t-13.312 32.256v82.944q0 19.968 14.336 30.72t34.304 10.24q19.456 0 32.768-11.264t13.312-30.208zM258.56 300.288v87.552q0 5.12-4.608 8.704t-9.728 3.072-9.216-3.072-4.096-8.704v-87.552q0-13.312 13.312-13.312 14.336 0 14.336 13.312zM161.28 480h37.376l-28.16-84.48q-2.048-6.144-5.12-13.824t-5.12-14.336-4.096-14.336v-90.112h-36.864v86.016q-1.024 6.144-14.848 43.52l-29.184 87.552h37.376l23.552-86.528h2.56zM474.112 101.632q0-25.088-3.072-74.24-2.048-25.6-19.456-40.96t-43.52-15.872q-50.688-2.56-152.064-2.56-101.888 0-152.064 2.56-25.6 1.024-43.008 15.872t-19.968 40.96q-3.072 49.152-3.072 74.24t3.072 74.24q2.048 25.6 19.968 40.96t43.008 15.872q50.176 2.56 152.064 2.56t152.064-2.56q25.6-1.024 43.52-15.872t19.456-40.96q3.072-49.152 3.072-74.24zM437.76 55.040v9.728h-27.136q0-1.024 0.512-6.656t0-7.68-1.536-6.144-3.584-5.12-7.168-1.536q-5.12 0-7.68 3.072t-3.072 6.144-0.512 8.704v24.576h50.176v32.768q0 17.92-9.728 28.16t-27.648 10.24q-17.408 0-28.672-10.24t-11.776-28.16v-57.856q0-18.432 10.24-29.696t28.16-10.752q39.424 0 39.424 40.448zM339.968 45.312v71.68q0 32.256-25.6 32.256-12.8 0-23.552-11.776v56.32h-26.624v-175.616h26.624v10.24q11.264-11.776 25.088-11.776 24.064 0 24.064 28.672zM211.968 18.176h26.112v129.536h-26.112v-98.304q-8.704-9.728-15.872-9.728-6.656 0-6.656 8.704v99.328h-26.624v-109.056q0-22.528 18.432-22.528 15.36 0 30.72 16.384v-14.336zM132.096 168.192h31.232v25.6h-91.648v-25.6h30.72v-150.016h29.696v150.016zM410.624 114.432v-14.336h-23.040v14.336q0 13.824 11.776 13.824 11.264 0 11.264-13.824zM312.832 115.968v-68.096q0-10.752-9.216-10.752-7.168 0-12.8 5.632v80.896q5.12 5.12 11.264 5.12 10.752 0 10.752-12.8z" />
<glyph unicode="&#xe80d;" d="M219.648 297.216q0 30.208-21.504 51.712t-51.712 21.504-51.712-21.504-21.504-51.712 21.504-51.712 51.712-21.504 51.712 21.504 21.504 51.712zM292.352 297.216q0-31.232-9.216-51.2l-103.936-221.184q-4.608-9.216-13.824-14.848t-18.944-5.632-19.456 5.632-13.312 14.848l-104.448 221.184q-9.216 19.968-9.216 51.2 0 60.416 43.008 103.424t103.424 43.008 103.424-43.008 42.496-103.424z" horiz-adv-x="293" />
<glyph unicode="&#xe80e;" d="M475.648 50.432v219.136q-9.216-10.24-19.968-18.944-76.288-58.368-121.856-96.256-14.336-12.288-23.552-19.456t-24.576-13.824-29.184-6.656h-1.024q-13.312 0-29.184 6.656t-24.576 13.824-23.552 19.456q-45.056 37.888-121.856 96.256-10.752 8.704-19.968 18.944v-219.136q0-4.096 3.072-6.656t6.144-2.56h420.864q3.584 0 6.144 2.56t3.072 6.656zM475.648 350.464v7.168t-0.512 3.584-0.512 3.584-1.536 2.56-2.56 2.048-4.096 1.024h-420.864q-3.584 0-6.144-3.072t-3.072-6.144q0-48.128 41.984-81.408 55.296-43.52 114.688-90.624 2.048-1.024 10.24-8.192t12.8-10.752 12.8-9.216 14.336-7.68 12.288-2.56h1.024q5.632 0 12.288 2.56t14.336 7.68 12.8 9.216 12.8 10.752 10.24 8.192q59.392 47.104 114.688 90.624 15.36 12.288 28.672 33.28t13.312 37.376zM512 361.216v-310.784q0-18.944-13.312-32.256t-32.256-13.824h-420.864q-18.432 0-32.256 13.824t-13.312 32.256v310.784q0 18.944 13.312 32.256t32.256 13.312h420.864q18.944 0 32.256-13.312t13.312-32.256z" />
<glyph unicode="&#xe80f;" d="M235.52 459.52q97.28 0 166.4-69.12t69.12-166.4-69.12-166.4-166.4-69.12-166.4 69.12-69.12 166.4 69.12 166.4 166.4 69.12zM235.52 39.68q76.8 0 130.56 54.272t53.76 130.048q0 76.8-53.76 130.56t-130.56 53.76q-75.776 0-130.048-53.76t-54.272-130.56q0-75.776 54.272-130.048t130.048-54.272zM253.952 357.12v-124.928l76.8-76.8-25.6-25.6-87.040 87.040v140.288h35.84z" horiz-adv-x="471" />
<glyph unicode="&#xe810;" d="M0-7.424v396.8h47.104q0 14.848 0.512 19.968t2.048 16.384 5.632 15.36 12.8 8.192 20.48 4.096 20.992-4.096 12.288-8.192 5.632-15.36 2.048-16.384v-19.968h28.16v19.968t2.048 16.384 6.144 15.36 12.288 8.192 20.48 4.096q9.216 0 15.872-2.048t11.264-4.096 7.168-8.704 4.608-9.728 2.048-12.288 0.512-12.8v-14.336h27.648v14.336t1.024 12.8 2.048 12.288 4.096 9.728 7.68 8.704 10.752 4.096 15.872 2.048q12.288 0 20.992-4.096t12.288-8.192 5.632-15.36 2.048-16.384v-19.968h47.104v-396.8h-397.312zM33.28 83.2v-57.344h71.168v57.344h-71.168zM33.28 94.464h71.168v60.928h-71.168v-60.928zM33.28 166.656h71.168v66.56h-71.168v-66.56zM33.28 243.968h71.168v57.344h-71.168v-57.344zM69.632 347.904q0-16.896 18.944-16.896t18.944 16.896v66.56q0 16.896-18.944 16.896t-18.944-16.896v-66.56zM115.2 83.2v-57.344h77.824v57.344h-77.824zM115.2 94.464h77.824v60.928h-77.824v-60.928zM115.2 166.656h77.824v66.56h-77.824v-66.56zM115.2 243.968h77.824v57.344h-77.824v-57.344zM179.712 347.904q0-16.896 18.944-16.896 19.456 0 19.456 16.896v66.56q0 16.896-19.456 16.896-18.944 0-18.944-16.896v-66.56zM203.776 83.2v-57.344h77.824v57.344h-77.824zM203.776 94.464h77.824v60.928h-77.824v-60.928zM203.776 166.656h77.824v66.56h-77.824v-66.56zM203.776 243.968h77.824v57.344h-77.824v-57.344zM289.792 347.904q0-16.896 19.456-16.896 18.944 0 18.944 16.896v66.56q0 16.896-18.944 16.896-19.456 0-19.456-16.896v-66.56zM292.352 83.2v-57.344h71.68v57.344h-71.68zM292.352 94.464h71.68v60.928h-71.68v-60.928zM292.352 166.656h71.68v66.56h-71.68v-66.56zM292.352 243.968h71.68v57.344h-71.68v-57.344z" horiz-adv-x="398" />
<glyph unicode="&#xe811;" d="M231.424 144.128q9.216-9.216 9.216-22.016t-9.216-22.016q-9.216-8.192-22.016-8.192t-22.016 8.192l-67.584 77.824-67.584-77.824q-9.216-8.192-22.016-8.192t-22.016 8.192q-8.192 9.216-8.192 22.016t8.192 22.016l70.656 79.872-70.656 80.896q-8.192 9.216-8.192 22.016t8.192 22.016q9.216 8.192 22.016 8.192t22.016-8.192l67.584-77.824 67.584 77.824q9.216 8.192 22.016 8.192t22.016-8.192q9.216-9.216 9.216-22.016t-9.216-22.016l-70.656-80.896z" horiz-adv-x="241" />
<glyph unicode="&#xe812;" d="M512-1.28h-114.688v76.8q0 27.648-15.36 41.472t-78.848 45.568q20.48 15.36 20.48 43.008 0 8.192-6.656 16.896t-9.728 26.112q-1.024 4.096-7.168 8.192t-7.168 21.504q0 12.288 6.144 15.36-3.072 17.408-4.096 30.72-2.048 19.456 11.776 39.936t48.64 20.48 49.152-20.48 12.288-39.936l-4.096-30.72q6.144-3.072 6.144-15.36-1.024-17.408-7.168-21.504t-7.168-8.192q-3.072-17.408-9.728-26.112t-6.656-16.896q0-21.504 10.752-33.792t39.424-24.576q57.344-23.552 66.56-40.96 3.072-4.096 4.608-31.232t2.56-51.712v-24.576zM262.144 132.864q93.184-39.936 93.184-63.488v-70.656h-355.328v94.208q0 22.528 43.008 39.936 38.912 16.384 53.248 32.768t14.336 45.056q0 10.24-9.728 22.528t-12.8 34.816q-1.024 5.12-9.216 11.264t-10.24 28.672q0 7.168 1.536 11.776t3.584 6.656l2.048 1.024q-3.072 23.552-5.12 41.984-2.048 25.6 16.896 52.736t65.024 27.136 65.024-27.136 16.896-52.736l-5.12-41.984q7.168-4.096 7.168-19.456-2.048-22.528-10.24-28.672t-9.216-11.264q-3.072-22.528-12.8-34.816t-9.728-22.528q0-28.672 14.336-45.056t53.248-32.768z" />
<glyph unicode="&#xe813;" d="M317.44 110.336q92.16-32.768 92.16-62.464v-54.272h-409.6v103.424q18.432 7.168 41.984 13.312 48.128 17.408 66.048 35.328t17.92 48.64q0 11.264-11.776 24.576t-15.872 37.888q-1.024 6.144-11.776 12.8t-12.8 31.232q0 8.192 2.56 13.312t4.608 6.144l2.048 2.048q-4.096 25.6-6.144 45.056-3.072 27.648 20.48 57.344t81.92 29.696 81.92-29.696 21.504-57.344l-7.168-45.056q9.216-4.096 9.216-21.504-1.024-14.336-4.608-22.016t-7.168-8.704-7.168-4.096-4.608-9.216q-5.12-23.552-16.896-37.376t-11.776-25.088q0-30.72 18.432-48.64t66.56-35.328zM435.2 249.6h76.8v-51.2h-76.8v-76.8h-51.2v76.8h-76.8v51.2h76.8v76.8h51.2v-76.8z" />
<glyph unicode="&#xe814;" d="M179.2 324.352q0-3.584-3.072-6.144l-112.128-112.64 112.128-112.128q3.072-3.072 3.072-6.656t-3.072-6.656l-14.336-14.336q-2.56-2.56-6.144-2.56t-6.656 2.56l-133.12 133.12q-3.072 3.072-3.072 6.656t3.072 6.656l133.12 133.12q2.56 3.072 6.656 3.072t6.144-3.072l14.336-14.336q3.072-2.56 3.072-6.656z" horiz-adv-x="183" />
<glyph unicode="&#xe815;" d="M404.48 373.504q35.84-32.768 35.84-79.872t-35.84-79.872l-184.32-168.96-184.32 168.96q-35.84 32.768-35.84 79.872t35.84 79.872q32.768 29.696 77.824 29.696t76.8-29.696l29.696-26.624 28.672 26.624q32.768 29.696 77.824 29.696t77.824-29.696zM376.832 240.384q21.504 20.48 21.504 53.248 0 33.792-19.456 51.2-19.456 19.456-52.224 19.456-26.624 0-53.248-24.576l-53.248-47.104-54.272 47.104q-24.576 24.576-52.224 24.576-32.768 0-53.248-19.456-19.456-18.432-19.456-51.2 0-33.792 22.528-53.248l156.672-146.432z" horiz-adv-x="441" />
<glyph unicode="&#xe816;" d="M404.48 374.528q35.84-32.768 35.84-79.872t-35.84-80.896l-184.32-168.96-184.32 168.96q-35.84 33.792-35.84 80.896t35.84 79.872q31.744 29.696 77.312 29.696t78.336-29.696l28.672-26.624 29.696 26.624q31.744 29.696 76.8 29.696t77.824-29.696z" horiz-adv-x="441" />
<glyph unicode="&#xe818;" d="M169.984 205.568q0-3.584-3.072-6.656l-133.12-133.12q-2.56-2.56-6.144-2.56t-6.656 2.56l-14.336 14.336q-3.072 3.072-3.072 6.656t3.072 6.656l112.128 112.128-112.128 112.64q-3.072 2.56-3.072 6.144t3.072 6.656l14.336 14.336q2.56 3.072 6.656 3.072t6.144-3.072l133.12-133.12q3.072-2.56 3.072-6.656z" horiz-adv-x="183" />
<glyph unicode="&#xe819;" d="M503.808 352q8.192-5.12 8.192-15.36v-299.008q0-10.24-8.192-15.36-4.096-3.072-8.192-3.072t-9.216 3.072l-110.592 69.632-110.592-69.632q-9.216-5.12-17.408 0l-111.616 69.632-110.592-69.632q-8.192-5.12-17.408 0-8.192 5.12-8.192 15.36v299.008q0 10.24 8.192 15.36l119.808 74.752q9.216 5.12 17.408 0l110.592-69.632 111.616 69.632q8.192 5.12 16.384 0zM119.808 121.6v259.072l-86.016-53.248v-259.072zM239.616 68.352v259.072l-86.016 53.248v-259.072zM359.424 121.6v259.072l-87.040-53.248v-259.072zM478.208 68.352v259.072l-86.016 53.248v-259.072z" />
<glyph unicode="&#xe81a;" d="M329.216 242.432q0 52.736-37.888 90.112t-90.112 37.888-90.624-37.888-37.376-90.112 37.376-90.624 90.624-37.376 90.112 37.376 37.888 90.624zM475.648 4.352q0-14.848-11.264-25.6t-25.6-10.752q-15.36 0-25.6 10.752l-97.792 97.792q-51.2-35.328-114.176-35.328-40.96 0-78.336 15.872t-64 43.008-43.008 64-15.872 78.336 15.872 77.824 43.008 64.512 64 43.008 78.336 15.872 77.824-15.872 64.512-43.008 43.008-64.512 15.872-77.824q0-62.976-35.328-114.176l97.792-97.792q10.752-10.752 10.752-26.112z" horiz-adv-x="475" />
<glyph unicode="&#xe81b;" d="M104.448 402.176q0-20.48-14.848-34.816t-38.4-14.336q-22.528 0-36.864 14.336t-14.336 34.816q0 21.504 14.336 35.328t37.888 13.824 37.376-13.824 14.848-35.328zM3.072-2.304v316.416h98.304v-316.416h-98.304zM159.744 212.736q0 44.032-2.048 101.376h84.992l5.12-44.032h2.048q30.72 51.2 97.28 51.2 51.2 0 82.432-34.304t31.232-101.888v-187.392h-98.304v175.104q0 68.608-50.176 68.608-35.84 0-50.176-36.864-3.072-6.144-3.072-24.576v-182.272h-99.328v215.040z" horiz-adv-x="461" />
<glyph unicode="&#xe81c;" d="M274.432 288q33.792 0 57.856-24.064t24.064-58.368-24.064-57.856-57.856-24.064-58.368 24.064-24.064 57.856 24.064 58.368 58.368 24.064zM475.648 406.784q30.208 0 51.712-21.504t20.992-51.712v-256q0-30.208-20.992-51.712t-51.712-21.504h-402.432q-30.208 0-51.712 21.504t-21.504 51.712v256q0 30.208 21.504 51.712t51.712 21.504h64l14.336 38.912q5.632 13.824 19.968 24.064t29.696 10.24h146.432q14.848 0 29.184-10.24t19.968-24.064l14.848-38.912h64zM274.432 77.568q52.736 0 90.112 37.888t37.888 90.112-37.888 90.624-90.112 37.376-90.624-37.376-37.376-90.624 37.376-90.112 90.624-37.888z" horiz-adv-x="549" />
<glyph unicode="&#xe81d;" d="M182.784 315.648q0-23.040-15.872-38.912t-38.912-16.384-38.912 16.384-15.872 38.912 15.872 38.4 38.912 16.384 38.912-16.384 15.872-38.4zM475.648 205.568v-128h-402.432v54.784l91.136 91.648 46.080-45.568 145.92 145.92zM502.784 406.784h-457.216q-3.584 0-6.144-2.56t-3.072-6.656v-347.136q0-4.096 3.072-6.656t6.144-2.56h457.216q3.584 0 6.656 2.56t2.56 6.656v347.136q0 3.584-2.56 6.656t-6.656 2.56zM548.352 397.568v-347.136q0-18.944-13.312-32.256t-32.256-13.824h-457.216q-18.432 0-32.256 13.824t-13.312 32.256v347.136q0 18.944 13.312 32.256t32.256 13.824h457.216q18.944 0 32.256-13.824t13.312-32.256z" horiz-adv-x="549" />
<glyph unicode="&#xe81e;" d="M109.568 22.784v36.864q0 7.168-5.12 12.8t-12.8 5.12h-36.864q-7.168 0-12.8-5.12t-5.632-12.8v-36.864q0-7.168 5.632-12.8t12.8-5.632h36.864q7.168 0 12.8 5.632t5.12 12.8zM109.568 132.352v36.864q0 7.168-5.12 12.8t-12.8 5.632h-36.864q-7.168 0-12.8-5.632t-5.632-12.8v-36.864q0-7.168 5.632-12.8t12.8-5.12h36.864q7.168 0 12.8 5.12t5.12 12.8zM109.568 242.432v36.352q0 7.68-5.12 12.8t-12.8 5.632h-36.864q-7.168 0-12.8-5.632t-5.632-12.8v-36.352q0-7.68 5.632-12.8t12.8-5.632h36.864q7.168 0 12.8 5.632t5.12 12.8zM402.432 22.784v146.432q0 7.168-5.632 12.8t-12.8 5.632h-219.648q-7.168 0-12.8-5.632t-5.12-12.8v-146.432q0-7.168 5.12-12.8t12.8-5.632h219.648q7.68 0 12.8 5.632t5.632 12.8zM109.568 352v36.352q0 7.68-5.12 13.312t-12.8 5.12h-36.864q-7.168 0-12.8-5.12t-5.632-13.312v-36.352q0-7.68 5.632-12.8t12.8-5.632h36.864q7.168 0 12.8 5.632t5.12 12.8zM512 22.784v36.864q0 7.168-5.632 12.8t-12.8 5.12h-36.352q-7.68 0-12.8-5.12t-5.632-12.8v-36.864q0-7.168 5.632-12.8t12.8-5.632h36.352q7.68 0 12.8 5.632t5.632 12.8zM402.432 242.432v145.92q0 7.68-5.632 13.312t-12.8 5.12h-219.648q-7.168 0-12.8-5.12t-5.12-13.312v-145.92q0-7.68 5.12-12.8t12.8-5.632h219.648q7.68 0 12.8 5.632t5.632 12.8zM512 132.352v36.864q0 7.168-5.632 12.8t-12.8 5.632h-36.352q-7.68 0-12.8-5.632t-5.632-12.8v-36.864q0-7.168 5.632-12.8t12.8-5.12h36.352q7.68 0 12.8 5.12t5.632 12.8zM512 242.432v36.352q0 7.68-5.632 12.8t-12.8 5.632h-36.352q-7.68 0-12.8-5.632t-5.632-12.8v-36.352q0-7.68 5.632-12.8t12.8-5.632h36.352q7.68 0 12.8 5.632t5.632 12.8zM512 352v36.352q0 7.68-5.632 13.312t-12.8 5.12h-36.352q-7.68 0-12.8-5.12t-5.632-13.312v-36.352q0-7.68 5.632-12.8t12.8-5.632h36.352q7.68 0 12.8 5.632t5.632 12.8zM548.352 397.568v-384q0-18.944-13.312-32.256t-32.256-13.312h-457.216q-18.432 0-32.256 13.312t-13.312 32.256v384q0 18.944 13.312 32.256t32.256 13.824h457.216q18.944 0 32.256-13.824t13.312-32.256z" horiz-adv-x="549" />
<glyph unicode="&#xe81f;" d="M438.784 224q0-44.544-17.408-84.992t-46.592-70.144-70.144-47.104-84.992-17.408q-49.152 0-93.696 20.992t-75.264 58.368q-2.048 3.072-2.048 6.656t2.56 5.632l38.912 39.424q3.072 2.56 7.168 2.56 4.608-0.512 6.656-3.584 20.992-27.136 51.2-41.984t64.512-14.848q29.696 0 56.32 11.776t47.104 31.232 31.232 46.592 11.264 56.832-11.264 56.832-31.232 46.592-47.104 31.232-56.32 11.776q-28.16 0-53.76-10.24t-46.080-29.184l39.424-39.424q8.704-8.192 4.096-19.456-5.12-11.776-16.896-11.776h-128q-7.68 0-12.8 5.632t-5.632 12.8v128q0 12.288 11.264 16.896 11.264 5.12 19.968-4.096l36.864-36.864q30.72 29.184 70.144 45.056t81.408 15.872q44.544 0 84.992-17.408t70.144-47.104 46.592-70.144 17.408-84.992z" horiz-adv-x="439" />
<glyph unicode="&#xe820;" d="M434.176 438.016q4.096-4.096 5.632-8.192t-1.024-11.264-5.12-13.312-9.728-19.968-12.288-25.088q-27.648-57.344-75.264-146.432t-80.384-149.504l-33.792-60.416-27.648 194.56-194.56 28.672q226.304 125.952 356.352 188.416 10.24 5.12 24.576 12.8t19.968 10.24 12.8 4.608 11.776 0.512 8.704-5.632zM387.072 388.864l-155.648-143.36 14.336-119.808z" horiz-adv-x="441" />
<glyph unicode="&#xe821;" d="M415.744 132.352q0 11.776-7.68 19.456l-59.392 59.392q-8.192 8.192-19.456 8.192-12.288 0-20.48-9.216 0.512-0.512 5.12-5.12t6.144-6.144 4.608-5.632 3.584-7.168 1.024-7.68q0-11.776-8.192-19.456t-19.456-8.192q-4.096 0-7.68 1.024t-7.168 3.584-5.632 4.608-6.144 6.144-5.12 5.12q-9.728-8.704-9.728-20.48 0-11.776 8.192-19.456l58.88-59.392q7.68-7.68 19.456-7.68 11.264 0 19.456 7.68l41.984 41.472q7.68 8.192 7.68 18.944zM215.040 334.080q0 11.264-7.68 19.456l-58.88 58.88q-8.192 8.192-19.456 8.192-11.264 0-19.456-7.68l-41.984-41.984q-8.192-7.68-8.192-18.944t8.192-19.456l59.392-59.392q7.68-7.68 19.456-7.68 11.776 0 20.48 8.704-1.024 1.024-5.632 5.632t-6.144 6.144-4.096 5.12-3.584 7.168-1.024 8.192q0 11.264 7.68 19.456t19.456 7.68q4.608 0 8.192-1.024t7.168-3.584 5.12-4.096 6.144-6.144 5.632-5.632q9.216 8.704 9.216 20.992zM471.040 132.352q0-34.304-24.576-57.856l-41.984-41.472q-23.552-24.064-57.856-24.064-34.816 0-58.368 24.576l-58.88 58.88q-23.552 24.064-23.552 58.368 0 34.816 25.088 59.392l-25.088 25.088q-24.576-25.088-59.392-25.088-34.304 0-58.368 24.064l-59.392 59.392q-24.064 24.064-24.064 58.368t24.064 57.856l41.984 41.984q24.064 23.552 58.368 23.552t58.368-24.064l58.368-59.392q24.064-23.552 24.064-57.856 0-35.328-25.088-59.904l25.088-25.088q24.576 25.088 59.392 25.088 34.304 0 58.368-24.064l59.392-59.392q24.064-24.064 24.064-58.368z" horiz-adv-x="475" />
<glyph unicode="&#xe822;" d="M219.648 443.648q59.392 0 110.080-29.696t79.872-79.872 29.184-110.080-29.184-110.080-79.872-79.872-110.080-29.696-110.592 29.696-79.36 79.872-29.696 110.080 29.696 110.080 79.36 79.872 110.592 29.696zM256 87.296v54.272q0 4.096-2.56 6.656t-6.144 2.56h-54.784q-4.096 0-6.656-2.56t-3.072-6.656v-54.272q0-4.096 3.072-6.656t6.656-3.072h54.784q3.584 0 6.144 3.072t2.56 6.656zM255.488 185.6l5.12 177.152q0 3.584-3.072 5.12-2.56 2.56-6.656 2.56h-62.976q-4.096 0-6.656-2.56-3.072-1.536-3.072-5.12l5.12-177.152q0-3.072 2.56-5.12t7.168-2.048h52.736q4.096 0 6.656 2.048t3.072 5.12z" horiz-adv-x="439" />
<glyph unicode="&#xe823;" d="M367.104 270.080q0 8.192-5.632 13.312l-25.6 25.6q-5.632 5.632-12.8 5.632t-13.312-5.632l-116.224-116.224-64.512 64.512q-5.632 5.632-12.8 5.632t-13.312-5.632l-25.6-25.6q-5.12-5.12-5.12-13.312 0-7.68 5.12-12.8l103.424-103.424q5.12-5.12 12.8-5.12t12.8 5.12l155.136 155.136q5.632 5.12 5.632 12.8zM438.784 224q0-59.904-29.184-110.080t-79.872-79.872-110.080-29.696-110.592 29.696-79.36 79.872-29.696 110.080 29.696 110.080 79.36 79.872 110.592 29.696 110.080-29.696 79.872-79.872 29.184-110.080z" horiz-adv-x="439" />
<glyph unicode="&#xe825;" d="M218.112 454.4q10.24 0 10.24-10.24v-440.32q0-10.24-10.24-10.24h-23.552q-10.24 0-10.24 10.24v225.28h-90.112q-8.192 0-14.336 3.072-6.144 1.024-13.312 6.144l-61.44 41.984q-5.12 3.072-5.12 8.192t5.12 8.192l61.44 41.984q7.168 5.12 13.312 6.144 4.096 2.048 14.336 2.048h90.112v97.28q0 10.24 10.24 10.24h23.552zM506.88 347.904q5.12-3.072 5.12-8.192t-5.12-8.192l-60.416-41.984q-11.264-6.144-13.312-6.144-7.168-3.072-14.336-3.072h-154.624l-20.48 117.76h175.104q9.216 0 14.336-2.048t13.312-6.144z" />
<glyph unicode="&#xe827;" d="M400.896 84.224q0-33.28-22.528-55.808t-55.808-22.528q-38.4 0-67.072 28.16l-222.208 222.208q-32.256 32.768-32.256 77.312 0 45.056 31.744 76.8t76.8 31.744q45.056 0 77.824-32.256l173.056-173.056q2.56-2.56 2.56-6.144 0-4.608-8.704-13.312t-13.312-8.704q-3.584 0-6.656 2.56l-173.056 173.568q-22.528 22.016-51.712 22.016-30.208 0-51.2-21.504t-20.48-51.712q0-29.696 21.504-51.712l221.696-221.696q17.92-17.92 41.472-17.92 18.432 0 30.208 11.776t12.288 30.208q0 23.552-18.432 41.472l-165.888 165.888q-7.168 7.168-16.896 7.168-8.192 0-13.824-5.632t-5.632-13.824q0-9.216 7.168-16.896l117.248-116.736q3.072-3.072 3.072-6.656 0-4.608-9.216-13.312t-13.312-8.704q-3.584 0-6.144 2.56l-117.248 117.248q-17.92 17.408-17.92 42.496 0 23.552 16.384 39.936t39.424 16.384q25.088 0 42.496-18.432l166.4-165.888q28.16-27.648 28.16-67.072z" horiz-adv-x="402" />
<glyph unicode="&#xe828;" d="M241.152 163.072h-241.152l120.32 120.832z" horiz-adv-x="241" />
<glyph unicode="&#xe829;" d="M0 16.128v463.872h311.808v-512l-155.648 156.16-156.16-156.16v48.128zM32.256 47.872l123.904 124.416 123.904-124.416v400.384h-247.808v-400.384z" horiz-adv-x="312" />
<glyph unicode="&#xe82a;" d="M0 16.128v463.872h311.808v-512l-155.648 156.16-156.16-156.16v48.128z" horiz-adv-x="312" />
<glyph unicode="&#xe82d;" d="M384 75.52v28.672l51.2 41.984v-96.256q0-10.24-7.68-17.92t-17.92-7.68h-384q-10.24 0-17.92 7.68t-7.68 17.92v281.6q0 11.264 7.168 18.432t18.432 7.168h147.456q-16.384-12.288-30.208-25.088t-19.968-19.968l-5.12-6.144h-66.56v-230.4h332.8zM342.016 253.696q-84.992 0-123.904-20.992t-81.92-92.672q0 4.096 0.512 11.264t4.608 28.672 11.264 40.448 22.528 42.496 35.84 40.448 54.784 28.672 76.288 11.776v79.872l169.984-128-169.984-133.12v91.136z" />
<glyph unicode="&#xe82e;" d="M475.648 295.168q0-6.144-7.68-13.824l-103.936-100.864 24.576-142.848q0.512-2.048 0.512-6.144 0-5.632-3.072-9.728t-8.704-4.608q-5.12 0-11.264 3.584l-128.512 67.584-128-67.584q-6.656-3.584-11.776-3.584-5.632 0-8.704 4.608t-3.072 9.728q0 2.048 0.512 6.144l24.576 142.848-103.936 100.864q-7.168 7.68-7.168 13.824 0 10.752 15.872 13.312l143.36 20.48 64.512 130.048q5.632 11.776 13.824 11.776t14.336-11.776l64-130.048 143.36-20.48q16.384-2.56 16.384-13.312z" horiz-adv-x="475" />
<glyph unicode="&#xe82f;" d="M324.608 193.28l87.552 84.48-120.32 17.92-54.272 109.056-53.76-109.056-120.832-17.92 87.552-84.48-20.992-120.32 108.032 56.832 108.032-56.832zM475.648 295.168q0-6.144-7.68-13.824l-103.936-100.864 24.576-142.848q0.512-2.048 0.512-6.144 0-14.336-11.776-14.336-5.12 0-11.264 3.584l-128.512 67.584-128-67.584q-6.656-3.584-11.776-3.584-5.632 0-8.704 4.608t-3.072 9.728q0 2.048 0.512 6.144l24.576 142.848-103.936 100.864q-7.168 7.68-7.168 13.824 0 10.752 15.872 13.312l143.36 20.48 64.512 130.048q5.632 11.776 13.824 11.776t14.336-11.776l64-130.048 143.36-20.48q16.384-2.56 16.384-13.312z" horiz-adv-x="475" />
<glyph unicode="&#xe830;" d="M338.944 206.592l73.216 71.168-101.376 14.848-18.944 3.072-8.704 17.408-45.568 91.648v-274.944l16.896-8.704 91.136-48.128-17.408 101.376-3.584 18.944zM467.968 281.344l-103.424-100.864 24.064-142.848q1.536-9.728-1.536-14.848t-9.728-5.632q-4.608 0-11.264 3.584l-128.512 67.584-128-67.584q-6.656-3.584-11.776-3.584-6.144 0-9.728 5.632t-1.536 14.848l24.576 142.848-103.936 100.864q-9.216 9.216-6.656 16.896t15.36 10.24l143.36 20.48 64.512 130.048q5.632 11.776 13.824 11.776t14.336-11.776l64-130.048 143.36-20.48q12.8-2.048 15.36-10.24t-6.656-16.896z" horiz-adv-x="475" />
<glyph unicode="&#xe831;" d="M332.8 147.2q31.744 0 54.272-22.016t22.528-54.784q0-31.744-22.528-54.272t-54.272-22.528-54.272 22.528-22.528 54.272q0 3.072 0.512 7.168t0.512 6.144l-133.12 79.872q-21.504-16.384-47.104-16.384-31.744 0-54.272 22.528t-22.528 54.272 22.528 54.272 54.272 22.528q27.648 0 47.104-15.36l133.12 79.872q0 2.048-0.512 6.144t-0.512 6.144q0 31.744 22.528 54.272t54.272 22.528 54.272-22.016 22.528-54.784q0-31.744-22.528-54.272t-54.272-22.528q-26.624 0-46.080 16.384l-134.144-79.872q1.024-4.096 1.024-13.312 0-8.192-1.024-12.288l134.144-79.872q18.432 15.36 46.080 15.36z" horiz-adv-x="410" />
<glyph unicode="&#xe833;" d="M0-32v418.816l96.256 93.184h266.752v-115.712l15.872 15.872 82.944-81.92-194.56-195.072-122.368-39.936 38.912 121.856 134.144 134.144v115.712h-188.928v-79.872h-83.968v-342.016h272.896v73.216l45.056 44.544v-162.816h-363.008zM184.832 103.168l60.928 19.968-40.96 41.984z" horiz-adv-x="462" />
<glyph unicode="&#xe834;" d="M233.472 211.712v-51.2h-233.472q4.096 115.712 5.12 149.504 2.048 55.296 51.2 55.296h81.92q8.192 13.312 18.944 34.304t11.776 23.040q7.168 13.312 11.776 16.384t18.944 3.072h113.664q13.312 0 18.432-3.584t11.264-15.872q9.216-16.384 30.72-57.344h81.92q49.152 0 51.2-55.296l5.12-149.504h-232.448v51.2h-46.080zM195.584 392.96l-14.336-27.648h149.504l-14.336 27.648q-7.168 13.312-21.504 13.312h-77.824q-14.336 0-21.504-13.312zM279.552 83.712v51.2h220.16q-3.072-45.056-5.12-84.992-3.072-43.008-46.080-43.008h-384q-46.080 0-46.080 43.008l-5.12 84.992h220.16v-51.2h46.080z" />
<glyph unicode="&#xe835;" d="M0 317.696q0 12.8 9.216 22.016t22.528 9.216 21.504-9.216l156.16-155.136 155.648 155.136q9.216 9.216 22.016 9.216t22.016-9.216 9.216-22.016-9.216-22.016l-199.68-200.192-200.192 200.192q-9.216 9.728-9.216 22.016z" horiz-adv-x="419" />
<glyph unicode="&#xe836;" d="M120.32 163.072l-120.32 120.832h241.152z" horiz-adv-x="241" />
<glyph unicode="&#xe837;" d="M404.992 193.792c0 135.168-23.040 276.992-57.856 310.272-4.096 5.12-10.24 8.192-16.896 8.192-11.264 0-20.992-10.24-20.992-20.992v-470.528c0-10.752 9.728-20.992 20.992-20.992 11.776 0 22.016 10.24 22.016 20.992v160.256h41.984c1.024 0 1.024 0 1.024 0 5.632 0 9.728 5.12 9.728 11.264 0 1.024 0 1.024 0 1.536zM245.248 512.256c-12.288 0-20.992-10.24-20.992-20.992v-96.256c0-15.872-9.216-30.208-22.016-36.864v133.12c0 10.752-9.216 20.992-20.992 20.992-12.288 0-20.992-10.24-20.992-20.992v-133.12c-13.312 6.656-22.016 20.992-22.016 36.864v96.256c0 10.752-9.216 20.992-20.992 20.992-12.288 0-20.992-10.24-20.992-20.992v-96.256c0-39.936 26.624-73.216 64-82.944v-291.328c0-10.752 8.704-20.992 20.992-20.992 11.776 0 20.992 10.24 20.992 20.992v291.328c36.864 9.728 64 43.008 64 82.944v96.256c0 10.752-9.216 20.992-20.992 20.992z" />
<glyph unicode="&#xe838;" d="M400.896 395.52q4.608-11.776-4.096-19.968l-140.8-140.8v-211.968q0-11.776-11.264-16.896-3.584-1.536-7.168-1.536-7.68 0-12.8 5.632l-73.216 73.216q-5.12 5.12-5.12 12.8v138.752l-140.8 140.8q-9.216 8.192-4.096 19.968 4.608 11.264 16.896 11.264h365.568q11.776 0 16.896-11.264z" horiz-adv-x="402" />
<glyph unicode="&#xe839;" d="M459.776 160h-404.992c-33.792 0-52.736-15.872-52.736-43.008 0-26.112 18.944-41.984 52.736-41.984h404.992c34.304 0 54.272 15.872 54.272 41.984 0 27.136-19.968 43.008-54.272 43.008zM455.168 129.792l-64-43.008c-1.024-0.512-3.072-1.536-5.12-1.536s-3.072 1.024-4.096 1.024l-128 43.008c-5.12 0.512-7.68 5.632-7.168 10.752 1.024 6.144 5.12 9.216 11.264 9.216h192c4.096 0 8.192-3.072 9.728-7.168 1.024-5.12-0.512-10.24-4.608-12.288zM459.776 64.256h-404.992c-5.632 0-10.752-5.12-10.752-11.264v-10.24c0-26.624 19.968-43.008 53.76-43.008h320c33.28 0 53.248 16.384 53.248 43.008v10.24c0 6.144-5.12 11.264-11.264 11.264zM514.048 277.248c0 24.576-29.184 35.84-44.032 40.96-4.096 110.592-94.208 194.048-211.968 194.048-118.784 0-208.896-83.456-212.992-194.048-14.848-5.12-43.008-16.384-43.008-40.96 0-10.24 2.048-18.432 8.192-25.088-5.12-8.192-8.192-17.92-8.192-28.16 0-29.184 23.040-52.736 52.736-52.736h404.992c30.208 0 54.272 23.552 54.272 52.736 0 10.24-4.096 19.968-9.216 28.16 6.144 6.656 9.216 14.848 9.216 25.088zM364.032 427.264c6.144 0 10.752-5.12 10.752-11.264s-4.608-10.752-10.752-10.752c-6.144 0-10.24 4.608-10.24 10.752 0 6.144 4.096 11.264 10.24 11.264zM310.784 448.256c6.144 0 11.264-5.12 11.264-11.264s-5.12-9.728-11.264-9.728c-5.632 0-10.752 3.584-10.752 9.728 0 6.144 5.12 11.264 10.752 11.264zM258.048 427.264c5.12 0 9.728-5.12 9.728-11.264s-4.608-10.752-9.728-10.752c-6.144 0-11.264 4.608-11.264 10.752 0 6.144 5.12 11.264 11.264 11.264zM203.776 448.256c6.144 0 11.264-5.12 11.264-11.264s-5.12-9.728-11.264-9.728c-5.632 0-9.728 3.584-9.728 9.728 0 6.144 4.096 11.264 9.728 11.264zM151.040 427.264c6.144 0 10.752-5.12 10.752-11.264s-4.608-10.752-10.752-10.752c-6.144 0-11.264 4.608-11.264 10.752 0 6.144 5.12 11.264 11.264 11.264zM459.776 256.256c-9.728 0-19.968 2.56-23.552 7.68-3.072 2.048-6.144 3.072-9.216 3.072-4.096-1.024-7.168-3.072-8.192-6.144-6.656-11.776-19.968-25.6-44.032-25.6-22.528 0-35.84 6.656-43.52 24.576-1.024 4.096-5.12 7.168-9.216 7.168-5.12 0-9.216-3.072-10.24-7.168-7.68-18.944-33.792-24.576-53.76-24.576-20.992 0-46.080 5.632-54.784 24.576-1.024 4.096-5.12 7.168-9.216 7.168-5.12 0-9.216-3.072-10.24-7.168-7.68-17.92-20.992-24.576-44.032-24.576-23.552 0-36.864 13.824-43.52 25.6-1.024 3.072-4.096 5.12-8.192 6.144-3.072 0-6.144-1.024-8.192-3.072-4.608-5.12-14.848-7.68-25.088-7.68-31.744 0-31.744 15.872-31.744 20.992 0 10.752 22.016 18.944 32.768 22.016h403.456c10.752-3.072 32.768-11.264 32.768-22.016 0-5.12 0-20.992-32.256-20.992z" />
<glyph unicode="&#xe83a;" d="M437.248 469.248c-41.472 0-74.24-33.28-74.24-74.24 0-4.096 0-7.168 1.024-10.752h-199.168l-74.752 84.992h-90.112v-20.992h79.872l56.32-64h-39.936c-4.096 0-8.192-3.072-10.24-7.168-2.048-4.096-1.024-8.192 2.048-11.264l167.936-167.936v-177.152h-74.752c-6.144 0-10.24-3.584-10.24-9.728s4.096-11.264 10.24-11.264h171.008c5.632 0 10.752 5.12 10.752 11.264s-5.12 9.728-10.752 9.728h-75.264v177.152l129.024 129.024c10.24-5.12 19.968-6.656 31.232-6.656 40.96 0 74.752 33.792 74.752 74.752 0 40.96-33.792 74.24-74.752 74.24zM437.248 341.248c-5.12 0-10.24 1.024-14.336 1.536l22.016 23.040c3.072 3.072 4.096 7.168 2.048 11.264-1.024 4.096-5.12 7.168-9.728 7.168h-52.224c-1.024 2.56-1.024 6.656-1.024 10.752 0 29.184 24.064 53.248 53.248 53.248 29.696 0 53.76-24.064 53.76-53.248 0-30.208-24.064-53.76-53.76-53.76z" />
<glyph unicode="&#xe83b;" d="M96.256 149.248h-84.992c-6.144 0-11.264-4.096-11.264-10.24v-128c0-6.144 5.12-11.264 11.264-11.264h84.992c5.632 0 10.752 5.12 10.752 11.264v128c0 6.144-5.12 10.24-10.752 10.24zM53.248 42.752c-6.144 0-10.24 4.096-10.24 10.24s4.096 11.264 10.24 11.264c5.632 0 10.752-5.12 10.752-11.264 0-6.144-5.12-10.24-10.752-10.24zM288.256 85.248h-17.408c0 0 0 1.024 0 1.024-12.8 12.8-39.936 41.984-89.6 41.984h-53.248c-6.144 0-10.752-5.12-10.752-11.264v-84.992c0-6.144 4.608-11.264 10.752-11.264h320c6.144 0 11.264 5.12 11.264 11.264 0 35.84-56.32 53.248-171.008 53.248zM501.248 235.264h-489.984c-6.144 0-11.264-5.12-11.264-11.264s5.12-10.752 11.264-10.752h16.896l38.912-39.424c2.048-2.048 5.12-2.56 8.192-2.56h361.984c2.56 0 5.632 0.512 7.68 2.56l38.912 39.424h17.408c5.632 0 10.752 4.608 10.752 10.752s-5.12 11.264-10.752 11.264zM64 244.992h384c0 0 0 0 0 0 6.144 0 11.264 5.12 11.264 11.264 0 1.024 0 1.024 0 1.536-1.024 92.16-75.264 171.008-168.448 187.392 5.12 6.656 8.192 14.848 8.192 24.064 0 23.552-18.944 43.008-43.008 43.008-24.064 0-43.008-19.456-43.008-43.008 0-9.216 3.072-17.408 8.192-24.064-94.208-16.384-167.936-96.256-167.936-188.928 0-6.144 4.608-11.264 10.752-11.264zM256 491.264c11.776 0 20.992-10.24 20.992-22.016 0-11.264-9.216-20.992-20.992-20.992-11.776 0-20.992 9.728-20.992 20.992 0 11.776 9.216 22.016 20.992 22.016zM130.048 325.888c28.16 43.008 74.752 69.12 125.952 69.12 6.144 0 11.264-5.12 11.264-10.752 0-6.144-5.12-11.264-11.264-11.264-44.032 0-83.968-22.016-108.032-58.88-2.048-3.072-5.12-5.12-8.704-5.12-2.048 0-4.096 1.024-6.144 2.048-5.12 3.072-6.144 10.24-3.072 14.848z" />
<glyph unicode="&#xe83c;" d="M75.264 416h361.984c5.632 0 10.752 5.12 10.752 11.264v20.992c0 4.608-3.072 8.704-8.192 9.728l-180.736 54.272c-2.048 0-4.096 0-6.144 0l-180.736-54.272c-5.12-1.024-8.192-5.12-8.192-9.728v-20.992c0-6.144 5.12-11.264 11.264-11.264zM501.248 20.736h-74.24v374.272c0 6.144-5.12 10.24-10.752 10.24h-320c-6.144 0-11.264-4.096-11.264-10.24v-374.272h-73.728c-6.144 0-11.264-3.584-11.264-9.728s5.12-11.264 11.264-11.264h489.984c5.632 0 10.752 5.12 10.752 11.264s-5.12 9.728-10.752 9.728zM181.248 75.008h-41.984v41.984h41.984zM181.248 160h-41.984v43.008h41.984zM181.248 244.992h-41.984v43.008h41.984zM181.248 331.008h-41.984v41.984h41.984zM224.256 372.992h64v-41.984h-64zM224.256 288h64v-43.008h-64zM224.256 203.008h64v-43.008h-64zM299.008 20.736h-86.016v96.256c0 6.144 5.12 11.264 11.264 11.264h64c5.632 0 10.752-5.12 10.752-11.264zM373.248 75.008h-41.984v41.984h41.984zM373.248 160h-41.984v43.008h41.984zM373.248 244.992h-41.984v43.008h41.984zM373.248 331.008h-41.984v41.984h41.984z" />
<glyph unicode="&#xe83d;" d="M508.928 319.232l-116.736 116.736c-2.048 2.048-5.12 3.072-8.192 3.072h-28.16l-27.648 29.184c-1.024 0-1.024 0-1.024 0-1.024 1.024-2.048 2.048-2.048 2.048-1.024 0-1.024 0-1.024 0-2.048 0.512-3.072 0.512-4.096 0.512h-128c-1.024 0-2.048 0-4.096-0.512 0 0 0 0-1.024 0 0 0-1.024-1.024-2.048-2.048 0 0 0 0-1.024 0l-27.648-29.184h-28.16c-3.072 0-6.144-1.024-8.192-3.072l-116.736-116.736c-4.096-5.12-4.096-11.264 0-15.36l64-64c4.096-4.608 10.752-4.608 14.848 0l35.328 35.328v-241.152c0-6.144 4.608-11.264 10.752-11.264h117.248v340.992c0 6.144 4.608 11.264 10.752 11.264s11.264-5.12 11.264-11.264v-340.992h116.736c6.144 0 11.264 5.12 11.264 11.264v241.152l34.816-35.328c4.096-4.608 10.752-4.608 14.848 0l64 64c4.096 4.096 4.096 10.24 0 15.36zM224.256 380.16l-49.152 47.616 16.896 17.408 49.152-49.152zM256 411.904l-37.888 37.888h75.776zM288.256 119.040c-6.144 0-11.264 5.12-11.264 10.752 0 6.144 5.12 10.24 11.264 10.24 5.632 0 10.752-4.096 10.752-10.24 0-5.632-5.12-10.752-10.752-10.752zM288.256 162.048c-6.144 0-11.264 5.12-11.264 9.728 0 6.144 5.12 11.264 11.264 11.264 5.632 0 10.752-5.12 10.752-11.264 0-4.608-5.12-9.728-10.752-9.728zM288.256 204.032c-6.144 0-11.264 5.12-11.264 10.752 0 6.144 5.12 11.264 11.264 11.264 5.632 0 10.752-5.12 10.752-11.264 0-5.632-5.12-10.752-10.752-10.752zM288.256 247.040c-6.144 0-11.264 5.12-11.264 10.752 0 6.144 5.12 10.24 11.264 10.24 5.632 0 10.752-4.096 10.752-10.24 0-5.632-5.12-10.752-10.752-10.752zM288.256 290.048c-6.144 0-11.264 5.12-11.264 9.728 0 6.144 5.12 11.264 11.264 11.264 5.632 0 10.752-5.12 10.752-11.264 0-4.608-5.12-9.728-10.752-9.728zM288.256 380.16l-17.408 15.872 49.152 49.152 16.896-17.408z" />
<glyph unicode="&#xe83e;" d="M501.248 512.256h-489.984c-6.144 0-11.264-5.12-11.264-11.264v-489.984c0-6.144 5.12-11.264 11.264-11.264h169.984c5.632 0 10.752 5.12 10.752 11.264 0 33.792-4.096 67.072-11.776 96.256h151.552c-7.68-29.184-11.776-62.464-11.776-96.256 0-6.144 5.12-11.264 11.264-11.264h169.984c5.632 0 10.752 5.12 10.752 11.264v489.984c0 6.144-5.12 11.264-10.752 11.264zM329.216 457.984c4.608 2.048 10.752-2.048 11.776-8.192 10.24-47.616 49.152-98.816 90.112-119.808 6.144-3.072 7.68-9.728 5.12-14.848-2.048-4.096-5.12-6.144-9.216-6.144-2.048 0-4.096 1.024-5.12 1.024-47.616 24.064-90.624 80.896-101.888 136.192-1.024 5.632 3.072 10.752 9.216 11.776zM80.896 329.984c41.984 20.992 80.384 72.192 90.112 119.808 1.024 6.144 7.168 10.24 11.776 8.192 6.144-1.024 10.24-6.144 9.216-11.776-10.752-55.296-53.76-112.128-101.888-136.192-1.024 0-3.072-1.024-5.12-1.024-4.096 0-7.168 2.048-9.216 6.144-2.56 5.12-0.512 11.776 5.12 14.848zM20.992 224v20.992h43.008v-20.992zM107.008 96c-6.144 0-10.752 5.12-10.752 11.264 0 16.896-16.384 47.616-23.040 52.736-5.12 1.024-9.216 5.12-9.216 11.264 0 5.632 5.12 9.728 11.264 9.728 22.016 0 41.984-53.76 41.984-73.728 0-6.144-4.096-11.264-10.24-11.264zM338.944 128.256h-165.888c-18.944 52.736-50.176 88.576-88.064 94.72v23.040c90.112 4.096 147.968 57.856 171.008 154.112 23.040-96.256 80.896-150.016 171.008-154.112v-23.040c-37.888-6.144-69.12-41.984-88.064-94.72zM438.784 160c-6.656-5.12-22.528-35.84-22.528-52.736 0-6.144-5.12-11.264-11.264-11.264-6.144 0-9.728 5.12-9.728 11.264 0 19.968 19.968 73.728 41.984 73.728 5.632 0 10.752-4.096 10.752-9.728 0-6.144-4.096-10.24-9.216-11.264zM491.008 224h-43.008v20.992h43.008z" />
</font>
</defs>
</svg>
